<svg width="49" height="49" viewBox="0 0 110 133" fill="none" xmlns="http://www.w3.org/2000/svg">
    <path d="M0.889648 0.725586C17.5889 0.725586 30.8555 0.725586 40.6895 0.725586C50.5853 0.725586 56.5846 0.75651 58.6875 0.818359C67.8411 1.2513 74.3044 2.33366 78.0771 4.06543C81.8499 5.73535 84.8496 7.62174 87.0762 9.72461C91.8385 14.4251 94.2197 20.1152 94.2197 26.7949C94.2197 33.4128 91.9004 39.2266 87.2617 44.2363C85.8392 45.7826 84.2002 47.1123 82.3447 48.2256C92.4261 50.0811 100.683 54.3177 107.115 60.9355C114.104 68.11 117.599 76.8617 117.599 87.1904C117.599 97.7048 114.352 106.766 107.857 114.373C98.7656 124.887 84.7259 130.639 65.7383 131.629C60.9141 131.876 56.1517 132 51.4512 132H0.889648V0.725586ZM61.749 46.3701L66.4805 46.9268H67.9648C72.8509 46.9268 77.0876 45.1331 80.6748 41.5459C84.5094 37.7113 86.4268 33.0107 86.4268 27.4443C86.4268 20.641 83.4889 15.4147 77.6133 11.7656C74.6445 9.91016 71.6758 8.8278 68.707 8.51855C65.8001 8.14746 63.5117 7.90007 61.8418 7.77637C58.3783 7.52897 53.8324 7.40527 48.2041 7.40527V125.135H58.502C69.0163 125.135 77.5824 123.836 84.2002 121.238C92.1169 118.517 98.3945 114.126 103.033 108.064C107.424 102.312 109.62 96.2822 109.62 89.9736C109.62 83.665 108.692 78.346 106.837 74.0166C104.981 69.6872 102.291 66.0072 98.7656 62.9766C91.5911 56.7298 81.6025 53.6064 68.7998 53.6064L62.3984 54.1631C60.4193 54.1631 58.9658 53.7611 58.0381 52.957C57.1104 52.153 56.6465 51.2253 56.6465 50.1738C56.6465 47.638 58.3473 46.3701 61.749 46.3701Z" fill="white"/>
</svg>
