<svg width="49" height="49" viewBox="0 0 49 48" fill="none" xmlns="http://www.w3.org/2000/svg">
<path d="M13.7774 9.50792H12.3516L12.1377 9.51583C10.6634 9.63775 9.5 11.0057 9.5 12.6746V34.8412L9.50713 35.0787C9.56141 35.8753 9.88463 36.6196 10.4121 37.1628C10.9395 37.7059 11.6323 38.0078 12.3516 38.0079H13.7774L13.9912 37.9984C14.7083 37.9382 15.3784 37.5794 15.8674 36.9941C16.3565 36.4087 16.6285 35.6398 16.629 34.8412V12.6746L16.6218 12.4371C16.512 10.7999 15.2802 9.50792 13.7774 9.50792Z" fill="#605770"/>
<path d="M24.0821 9.5H22.6563L22.4424 9.50792C20.9682 9.62983 19.8047 10.9978 19.8047 12.6667V34.8333L19.8118 35.0708C19.8661 35.8674 20.1893 36.6117 20.7168 37.1549C21.2442 37.698 21.937 37.9999 22.6563 38H24.0821L24.296 37.9905C25.013 37.9302 25.6831 37.5715 26.1722 36.9861C26.6612 36.4007 26.9332 35.6319 26.9337 34.8333V12.6667L26.9265 12.4292C26.8168 10.792 25.5849 9.5 24.0821 9.5Z" fill="#605770"/>
<path d="M35.2945 13.5122C34.8925 12.2218 33.7974 11.381 32.5998 11.381C32.3659 11.381 32.1264 11.4143 31.8897 11.4823L30.5096 11.875L30.3057 11.9431C29.6238 12.1985 29.054 12.7309 28.7108 13.4333C28.3676 14.1357 28.2762 14.9563 28.455 15.7304L32.7552 35.6123L32.8222 35.8577C33.0566 36.6088 33.5366 37.2346 34.167 37.6111C34.7973 37.9876 35.5321 38.0874 36.2256 37.8907L37.6072 37.4981L37.8125 37.43C38.4939 37.1739 39.0629 36.6413 39.4056 35.939C39.7483 35.2366 39.8393 34.4164 39.6603 33.6427L35.3615 13.7607L35.2945 13.5122Z" fill="#605770"/>
</svg>
