<svg width="175" height="144" viewBox="0 0 175 144" fill="none" xmlns="http://www.w3.org/2000/svg">
<path fill-rule="evenodd" clip-rule="evenodd" d="M76.2485 139.766C68.4653 143.665 59.3405 143.983 50.7061 142.872C33.9904 140.722 17.1099 132.619 8.79843 117.957C5.2133 111.633 3.40261 104.462 2.14111 97.3029C0.456362 87.7415 -0.224208 77.4624 4.00942 68.7254C7.57846 61.3599 14.2019 56.0001 20.8007 51.1582C27.7167 46.0837 35.2087 41.1499 43.7266 40.1357C68.2978 39.6491 65.8087 48.8794 91.4695 34.199C98.9293 29.9314 121.108 37.257 128.602 39.6491C136.095 42.0412 150.883 49.4211 160.911 58.188C165.103 61.8525 168.969 66.0463 171.325 71.0911C174.852 78.6444 174.681 87.4435 173.035 95.6158C171.375 103.859 167.771 112.432 160.451 116.569C157.143 118.438 153.33 119.24 149.543 119.546C133.73 120.827 116.909 114.076 102.437 120.58C92.5308 125.032 85.959 134.901 76.2485 139.766Z" fill="#5E548E"/>
<path fill-rule="evenodd" clip-rule="evenodd" d="M16.9551 71.9155C19.9265 68.9886 22.7192 65.9708 24.5987 63.3406C27.1859 59.7202 30.9792 56.2779 35.474 55.6138C40.7158 54.8393 45.5298 58.453 49.34 62.135C54.604 67.2218 59.3282 72.8669 63.4076 78.945C61.7712 79.1582 58.245 81.599 53.5588 81.5215C50.8004 81.4759 47.5048 79.0176 44.3191 78.8534C42.1065 78.7394 39.6909 81.0555 37.4628 80.8789C33.5671 80.5701 29.9233 77.7018 26.637 77.183C24.6793 76.8739 22.0371 78.8199 20.5322 78.4295C16.3965 77.3567 15.1708 73.6731 16.9551 71.9155Z" fill="#F0E8E6"/>
<path fill-rule="evenodd" clip-rule="evenodd" d="M106.059 117.453C118.902 113.218 132.818 118.126 146.339 117.944C152.33 117.864 158.733 116.542 162.857 112.196C153.825 106.878 146.968 98.4209 141.974 89.2051C136.98 79.9893 133.697 69.9631 130.441 59.9999C126.156 57.5568 120.641 61.6884 115.938 60.2025C113.534 59.4432 110.664 57.3805 108.939 59.2184C107.898 60.3278 105.959 59.6752 104.947 58.5397C103.934 57.4043 103.37 55.8948 102.228 54.8894C101.086 53.884 98.919 53.7573 98.338 55.1634C97.3321 57.5974 96.2718 60.1116 94.3433 61.9052C92.4148 63.6989 89.3572 64.5647 87.0984 63.2103C85.3339 62.1524 84.5011 60.0938 83.4734 58.3116C82.4456 56.5294 82.0447 54.9271 80.001 55.1634C73.0976 69.7084 67.9436 84.0068 59.4509 97.6849C55.8015 103.563 35.3831 125.968 23.5189 123.081C11.6547 120.193 12.5349 117.944 8.52832 114.394C12.7018 122.885 20.0746 129.565 28.4928 133.883C36.9109 138.201 46.3397 140.278 55.771 141.028C59.4926 141.324 63.2671 141.417 66.9304 140.697C81.9429 137.746 91.5292 122.243 106.059 117.453Z" fill="#F0E8E6"/>
<path fill-rule="evenodd" clip-rule="evenodd" d="M93.1849 60.7211C94.5004 59.0215 95.3224 56.9767 96.6778 55.3087C98.0333 53.6407 100.234 52.3478 102.285 52.992C104.193 53.5915 105.243 55.5824 106.094 57.3926C106.521 58.3014 107.819 58.3717 108.755 58.0073C109.691 57.6429 110.532 56.984 111.53 56.875C113.596 56.6496 115.152 58.7893 117.17 59.282C120.174 60.0151 123.193 56.9498 126.162 57.8148C127.418 58.1809 128.505 59.2311 129.811 59.1414C127.3 53.1234 125.409 46.8566 122.773 40.8923C120.137 34.9281 116.661 29.1716 111.6 25.0596C111.08 24.6368 110.511 24.2181 109.845 24.1333C109.18 24.0485 108.41 24.4262 108.293 25.0864C107.947 27.0494 107.6 29.0123 107.254 30.9753C107.082 31.9471 106.629 33.1671 105.643 33.1486C104.985 33.1364 104.481 32.4918 104.39 31.8406C104.3 31.1893 104.518 30.5391 104.733 29.9177C105.407 27.9709 106.081 26.0241 106.755 24.0773C102.131 25.7455 98.1238 28.8421 94.8019 32.4647C91.48 36.0872 88.7934 40.239 86.2184 44.4255C84.0137 48.0101 81.8779 51.637 79.8125 55.3036C82.5821 54.9104 84.9944 57.1847 86.5615 59.5019C87.499 60.8884 88.6154 62.5403 90.2891 62.5341C91.4692 62.5298 92.4626 61.6543 93.1849 60.7211Z" fill="#F0E8E6"/>
<path fill-rule="evenodd" clip-rule="evenodd" d="M111.097 18.8261C110.791 18.7276 110.469 18.6156 110.26 18.3704C109.96 18.0176 109.98 17.502 110.016 17.04C110.373 12.4746 110.731 7.90925 111.088 3.34386C111.13 2.81485 111.649 2.4248 112.174 2.34669C112.698 2.26858 113.226 2.42752 113.733 2.58461C117.003 3.59794 120.272 4.61127 123.541 5.62459C124.339 5.87191 124.382 6.9795 124.214 7.7978C124.046 8.61611 123.92 9.66681 124.634 10.0999C129.402 12.9905 134.469 15.3884 139.727 17.2431C140.067 17.363 140.092 17.8798 139.854 18.151C139.617 18.4222 139.238 18.5097 138.886 18.5849C133.547 19.724 128.323 21.3997 123.318 23.5785C122.617 23.8834 121.703 24.162 121.174 23.6107C120.798 23.2185 120.834 22.6053 120.802 22.0627C120.771 21.5202 120.531 20.8705 119.992 20.802C116.975 20.4185 113.993 19.7562 111.097 18.8261ZM122.298 9.56589C123.03 8.40767 122.508 6.65693 121.262 6.08757C118.308 4.7373 115.207 3.70731 112.031 3.02145C112.559 3.8357 112.531 4.87721 112.484 5.84642C112.306 9.56805 112.122 13.324 111.15 16.921C111.066 17.232 111.466 17.4343 111.781 17.5046C114.597 18.1343 117.434 18.6696 120.286 19.1093C120.051 16.3606 119.816 13.6118 119.581 10.8631C119.555 10.5576 119.531 10.2385 119.648 9.95478C119.836 9.49515 120.359 9.24535 120.856 9.23123C121.353 9.21712 121.833 9.39276 122.298 9.56589ZM121.686 11.7325C121.91 14.9577 122.135 18.1829 122.359 21.4082C122.379 21.6909 122.412 22.003 122.621 22.1944C127.167 20.3073 131.877 18.814 136.68 17.737C131.475 16.2426 127.085 12.1546 121.686 11.7325Z" fill="#5E548E"/>
<path fill-rule="evenodd" clip-rule="evenodd" d="M76.2484 139.766C68.4652 143.665 59.3404 143.983 50.7061 142.872C33.9903 140.723 17.1099 132.619 8.79837 117.957C5.21324 111.633 3.40255 104.462 2.14105 97.303C1.44897 93.3752 0.104877 87.4926 2.56602 84.8225C3.11593 84.2259 18.5643 71.785 24.5987 63.3406C27.1858 59.7202 30.9792 56.2778 35.474 55.6137C40.7157 54.8392 45.5297 58.453 49.34 62.135C54.604 67.2218 59.3281 72.8669 63.4075 78.945C58.912 77.0352 55.6766 73.066 52.6904 69.2008C49.7043 65.3357 46.6187 61.2914 42.247 59.1131C37.8753 56.9347 31.8043 57.2976 28.965 61.2719C22.1977 70.7445 13.6371 78.9314 3.87208 85.2695C3.13762 85.7462 3.07122 86.7769 3.08497 87.6524C3.24371 97.7584 4.37358 109.267 12.4582 115.333C19.2108 120.399 29.0131 119.738 36.4098 115.67C43.8066 111.601 49.2162 104.72 53.8605 97.6702C67.4837 76.9911 76.3296 53.3542 90.9724 33.3841C94.3385 28.7933 98.3042 24.2023 103.727 22.4717C107.346 21.3169 108.361 16.6994 108.294 12.9015C108.228 9.10358 107.868 4.78557 110.505 2.05164C109.95 8.36737 109.394 14.6831 108.838 20.9988C116.938 25.0202 121.669 33.5821 125.141 41.9321C130.297 54.3314 133.796 67.3825 139.224 79.6652C144.652 91.9479 152.357 103.75 163.747 110.864C169.019 104 172.025 93.0129 172.025 86.7338C169.019 83.4571 164.748 78.3312 159.752 76.0232C153.796 73.2718 147.261 78.0955 142.477 82.5846C145.121 78.5595 148.296 74.3224 152.975 73.1825C156.752 72.2622 160.795 73.6348 163.929 75.9355C167.063 78.2362 169.452 81.3851 171.795 84.4876C174.164 85.2695 174.681 87.4435 173.035 95.6158C171.375 103.859 167.771 112.432 160.451 116.569C157.143 118.438 153.33 119.24 149.543 119.546C133.73 120.827 116.908 114.076 102.437 120.58C92.5307 125.032 85.9589 134.901 76.2484 139.766ZM106.059 117.453C118.902 113.218 132.818 118.126 146.339 117.944C152.329 117.864 158.733 116.542 162.857 112.196C153.824 106.878 146.968 98.4209 141.974 89.2051C136.98 79.9893 133.697 69.9631 130.44 59.9999C126.156 57.5568 120.64 61.6884 115.937 60.2025C113.534 59.4432 110.664 57.3805 108.939 59.2184C107.898 60.3279 105.959 59.6752 104.946 58.5397C103.934 57.4043 103.37 55.8948 102.228 54.8894C101.086 53.884 98.9187 53.7573 98.3377 55.1634C97.3318 57.5974 96.2716 60.1116 94.343 61.9052C92.4145 63.6989 89.3569 64.5647 87.0981 63.2103C85.3336 62.1524 84.5008 60.0938 83.4731 58.3116C82.4454 56.5294 80.7431 54.7476 78.6994 54.9838C71.7959 69.5288 64.0735 83.6851 55.5808 97.3632C51.9314 103.241 48.069 109.113 42.8421 113.646C37.6152 118.178 30.7897 121.279 23.9 120.648C18.3403 120.139 13.2902 117.308 8.52807 114.394C12.7016 122.885 20.0743 129.565 28.4925 133.883C36.9107 138.201 46.3394 140.278 55.7707 141.028C59.4923 141.324 63.2668 141.417 66.9301 140.697C81.9426 137.746 91.5289 122.243 106.059 117.453ZM92.918 59.6545C94.2336 57.9548 95.0555 55.9101 96.411 54.2421C97.7665 52.5741 99.9676 51.2811 102.018 51.9253C103.926 52.5248 104.976 54.5158 105.827 56.3259C106.254 57.2347 107.552 57.3051 108.488 56.9407C109.424 56.5762 110.265 55.9173 111.264 55.8083C113.329 55.583 114.885 57.7226 116.903 58.2153C119.907 58.9485 122.927 55.8832 125.895 56.7482C127.151 57.1142 128.239 58.1644 129.544 58.0747C127.033 52.0567 125.156 46.131 122.52 40.1668C119.884 34.2026 114.159 23.6549 109.579 23.0667C104.946 22.4717 97.857 27.7755 94.5351 31.398C91.2131 35.0205 88.5266 39.1723 85.9516 43.3589C83.7468 46.9434 81.611 50.5704 79.5457 54.237C82.3153 53.8438 84.7276 56.118 86.2946 58.4353C87.2322 59.8217 88.3486 61.4736 90.0223 61.4674C91.2024 61.4631 92.1957 60.5877 92.918 59.6545Z" fill="#282828"/>
<path fill-rule="evenodd" clip-rule="evenodd" d="M72.503 11.2878C69.5933 11.5831 67.2198 14.1377 66.021 17.5949C65.7094 18.4936 64.6864 18.9086 62.8914 19.0815L62.7782 19.092C58.8041 19.4464 56.1658 20.47 54.8938 22.81L54.8405 22.91C54.737 23.109 54.6484 23.3077 54.5188 23.6217L54.4352 23.8262C54.135 24.5639 53.9814 24.8761 53.7245 25.2009C52.9244 26.2123 51.7205 26.5236 49.3113 26.596L49.0437 26.603C43.2715 26.7315 39.1937 27.6086 35.8905 29.9155C34.9456 30.5754 34.383 31.2305 34.257 32.07C34.1126 33.0323 34.6717 34.0286 35.5642 34.5757C36.2784 35.0134 37.135 35.1863 38.2048 35.1894C39.5063 35.1932 40.8079 34.9667 42.0315 34.5232L42.1335 34.4858C42.3178 34.4175 42.4926 34.3479 42.7523 34.2402L43.3024 34.0106C44.4309 33.5437 44.9785 33.3782 45.6652 33.3422C46.7245 33.2867 47.5605 33.5662 49.3407 34.436L49.7152 34.6198C50.1027 34.8094 50.3823 34.9416 50.6565 35.0618L50.7312 35.0943C53.7178 36.3843 56.7711 36.6001 61.7302 36.2219L62.7087 36.1429L64.8757 35.9596C65.4447 35.9133 65.8519 35.8837 66.3211 35.854L66.7738 35.8273C68.7055 35.7222 70.7675 35.7204 74.1346 35.7876L76.4505 35.836C81.092 35.9275 83.1844 35.9028 85.4152 35.6732C88.0069 35.4064 89.6947 33.5968 90.3867 30.9159C90.9475 28.7432 90.7436 26.208 89.9621 25.0034C88.4018 22.5981 86.0729 21.1493 83.9301 21.8169C83.2198 22.0382 82.3263 21.5166 81.8704 20.6608C81.6227 20.196 81.497 19.7768 81.2905 18.8374L81.1906 18.3826C81.1329 18.1257 81.0907 17.9538 81.0373 17.7606C80.3103 15.1299 78.325 12.8836 75.8037 11.8388C74.6973 11.3804 73.5717 11.1794 72.503 11.2878ZM75.4974 12.5779C77.7522 13.5122 79.5433 15.5113 80.2316 17.8523L80.2662 17.9737C80.3158 18.1531 80.3558 18.3158 80.4113 18.5633L80.5347 19.1246C80.7425 20.0567 80.8829 20.5087 81.1643 21.037C81.7714 22.1766 82.9903 22.9034 84.1015 22.6001L84.1681 22.5807C85.8871 22.0451 87.9031 23.2993 89.291 25.4388C89.9356 26.4325 90.1215 28.7425 89.6121 30.716C88.9966 33.1004 87.5522 34.649 85.3333 34.8774L85.0846 34.9022C83.0413 35.0988 81.0088 35.1223 76.8172 35.0429L73.7566 34.9801C70.6 34.9205 68.6088 34.9261 66.7292 35.0286L65.9919 35.0737C65.4656 35.109 64.9638 35.1484 64.144 35.2176L61.8842 35.4075C56.9895 35.7934 54.0135 35.6085 51.1736 34.4132L51.0484 34.3599C50.8111 34.2573 50.574 34.1473 50.263 33.9967L49.5606 33.6533C47.7457 32.7731 46.8355 32.4797 45.6233 32.5433C44.7946 32.5868 44.1749 32.78 42.8894 33.3159L42.3209 33.5528C42.096 33.6449 41.9389 33.7059 41.759 33.7711C40.6234 34.1826 39.4149 34.393 38.2071 34.3894C37.2708 34.3867 36.5491 34.241 35.9822 33.8936C35.346 33.5036 34.9553 32.8074 35.0482 32.1887C35.1331 31.6227 35.5677 31.1167 36.3486 30.5714C39.4506 28.405 43.3284 27.551 48.8372 27.4082L49.0615 27.4028C51.8876 27.3398 53.318 27.0043 54.3519 25.6972C54.6448 25.3269 54.8173 24.9952 55.097 24.3205L55.3135 23.7945C55.4231 23.534 55.5006 23.3686 55.5966 23.192C56.6694 21.2187 58.981 20.2767 62.5283 19.9193L62.8493 19.8889C64.9747 19.6993 66.2677 19.2064 66.7509 17.9288L66.7769 17.857C67.8843 14.6632 70.0412 12.3417 72.5838 12.0837C73.471 11.9937 74.4202 12.1524 75.3682 12.5257L75.4974 12.5779Z" fill="#282828"/>
<path fill-rule="evenodd" clip-rule="evenodd" d="M159.208 27.8437L159.109 27.9424C159.034 28.0192 158.959 28.0989 158.867 28.2007L158.501 28.6126C158.152 29.0036 157.964 29.1898 157.717 29.3762C157.179 29.782 156.535 29.9074 156.107 29.6676C155.934 29.5712 155.806 29.4448 155.559 29.1406L155.375 28.9134C155.278 28.7971 155.21 28.7206 155.126 28.6361C154.022 27.5236 152.094 27.4697 150.626 28.3554C149.478 29.0485 148.652 30.1102 147.748 31.7994C147.379 32.4894 146.567 32.9665 145.601 33.1124C145.132 33.1833 144.638 33.1885 144.007 33.1418L143.698 33.116L142.728 33.0176C137.622 32.514 132.401 33.2355 127.623 35.1046C126.869 35.3996 126.45 35.6639 126.184 36.1562C125.8 36.8658 126.189 37.8957 127.009 37.9411C141.014 38.7171 155.077 38.4519 169.043 37.1486L169.929 37.0654L170.576 37.021C170.636 37.0166 170.686 37.0124 170.747 37.0069L170.913 36.9904C172.187 36.8491 172.887 36.4264 172.887 35.3671C172.887 34.3438 172.394 34.0639 171.148 33.937L170.899 33.9108C170.417 33.8581 170.197 33.8187 169.899 33.7264C168.843 33.3992 167.585 32.7169 167.31 32.3762C166.904 31.8721 166.731 31.3978 166.484 30.295L166.407 29.9461C166.147 28.8101 165.941 28.2682 165.452 27.6605C164.025 25.8864 160.98 26.1034 159.208 27.8437ZM164.828 28.1619C165.234 28.6657 165.407 29.1401 165.653 30.2411L165.731 30.5903C165.991 31.7281 166.197 32.2699 166.687 32.878C167.083 33.3697 168.468 34.1205 169.662 34.4906L169.772 34.5234C170.058 34.6058 170.297 34.6478 170.716 34.6954L171.268 34.7547C171.972 34.838 172.087 34.9382 172.087 35.3671C172.087 35.8889 171.709 36.1079 170.757 36.2025L170.514 36.2234L169.905 36.2648C169.875 36.2671 169.848 36.2693 169.821 36.2716L169.742 36.2788C155.561 37.6416 141.277 37.9305 127.053 37.1423C126.89 37.1333 126.757 36.7789 126.887 36.5367C127.035 36.2638 127.328 36.0791 127.915 35.8496C132.494 34.0579 137.494 33.3472 142.392 33.7894L142.991 33.8487L143.486 33.8995C143.602 33.9108 143.698 33.9194 143.803 33.9282C144.558 33.9909 145.146 33.9902 145.72 33.9035C146.916 33.7228 147.952 33.1144 148.453 32.1768C149.295 30.604 150.044 29.6412 151.04 29.0403C152.215 28.3314 153.739 28.374 154.558 29.1996L154.606 29.249C154.646 29.291 154.685 29.3362 154.734 29.3946L154.888 29.5829C155.231 30.0095 155.414 30.1965 155.716 30.3658C156.461 30.7827 157.431 30.5938 158.199 30.0148C158.48 29.8022 158.687 29.6019 159.029 29.2224L159.456 28.7431C159.579 28.6061 159.667 28.514 159.768 28.4145C161.232 26.9769 163.732 26.7987 164.828 28.1619Z" fill="#282828"/>
<path fill-rule="evenodd" clip-rule="evenodd" d="M108.294 12.9015C108.228 9.10358 107.868 4.78557 110.505 2.05164C109.95 8.36736 109.394 14.6831 108.838 20.9988C109.74 21.4469 108.394 22.1965 107.579 22.2116C104.656 22.2655 108.361 16.6994 108.294 12.9015Z" fill="#5E548E"/>
</svg>
