<svg width="163" height="118" viewBox="0 0 163 118" fill="none" xmlns="http://www.w3.org/2000/svg">
<g clip-path="url(#clip0_1309_50753)">
<path fill-rule="evenodd" clip-rule="evenodd" d="M112.277 1.65391C129.486 -2.1983 145.429 2.37215 153.998 15.4268C162.567 28.4814 160.326 49.1964 158.469 58.3402C156.613 67.4839 151.904 75.8589 146.06 83.1297C135.205 96.6344 120.536 106.969 104.137 112.547C87.7383 118.126 69.9335 119.27 52.8439 116.448C43.2573 114.864 13.2694 107.109 6.79616 83.704C0.322889 60.2992 -3.77389 40.2955 10.2441 32.1698C24.262 24.044 33.9718 30.1556 40.9114 33.161C73.3323 47.2019 95.0685 5.50612 112.277 1.65391Z" fill="#5E548E"/>
<path fill-rule="evenodd" clip-rule="evenodd" d="M136.508 23.5761C139.269 23.3629 142.245 23.5008 144.494 25.1149C146.744 26.729 147.766 30.2734 145.918 32.3359C148.007 31.5194 150.461 32.9042 151.507 34.8875C152.553 36.8709 152.499 39.2471 152.184 41.4672C151.405 46.9654 149.163 52.2496 145.752 56.6314C145.595 57.0933 145.438 57.5552 145.281 58.0171C149.314 59.0567 165.059 65.1716 160.805 80.2463C156.551 95.321 137.971 101.059 136.069 102.863C132.754 106.007 127.695 106.223 123.128 106.078C111.899 105.721 100.704 104.294 89.745 101.822C88.8133 101.612 87.6331 101.484 87.096 102.274C83.2085 107.989 75.079 108.5 68.1845 108.003C59.3284 107.364 50.5231 106.021 41.8792 103.99C36.9762 102.839 31.7697 101.235 28.7153 97.2304C25.1544 92.562 25.5657 86.0893 26.1434 80.2463C23.803 81.5475 19.9213 82.2523 14.4982 82.3605C11.3052 81.7093 9.31353 80.5519 8.52312 78.8883C4.90862 71.2807 3.66913 61.4774 8.17019 53.9788C8.71088 53.078 9.33474 52.1904 10.2152 51.6172C11.1486 51.0094 12.2865 50.8096 13.396 50.7114C17.7721 50.3238 22.262 51.3452 26.0397 53.5878C26.0059 41.3097 25.9722 29.0315 25.9385 16.7534C25.9365 16.0503 25.9463 15.3042 26.3212 14.7093C26.8634 13.8489 27.974 13.5822 28.9737 13.3956C38.0677 11.698 47.2648 10.553 56.4975 9.96924C59.5141 9.77849 63.6426 10.6181 63.6563 13.6407C63.7089 25.2165 63.7615 36.7922 63.8141 48.3679C63.8266 51.1231 64.0037 50.8927 65.2945 50.0943C64.4831 50.1784 64.6642 48.8021 65.2791 48.2661C67.5746 46.2648 70.9199 46.1912 73.9651 46.2224C80.7767 46.2921 87.5884 46.3618 94.4 46.4315C101 46.4991 108.915 47.336 111.903 53.2212C111.816 51.4722 113.401 49.8216 115.152 49.8377C117.062 49.8552 118.659 48.1985 119.217 46.3719C119.774 44.5452 119.528 42.5825 119.277 40.6893C116.198 37.7076 115.392 32.639 117.394 28.8491C119.397 25.0592 124.038 22.8687 128.236 23.7321C130.948 24.2898 133.748 23.7893 136.508 23.5761ZM57.4693 80.3581C57.3787 82.7952 57.2828 85.2651 56.5655 87.5961L57.4693 80.3581ZM54.6472 50.4478C55.2812 50.6333 56.0656 51.1955 55.7328 51.7661C58.4869 52.0413 57.6645 51.9138 57.7884 48.6684C57.9141 45.3751 57.9246 41.7338 55.7686 39.2412C53.8609 37.0357 50.7495 36.3458 47.8439 36.0978C44.4525 35.8082 41.0247 35.9473 37.6679 36.5108C36.03 36.7857 34.2559 37.2594 33.3054 38.6213C32.7734 39.3835 32.5777 40.3248 32.4214 41.2411C31.8067 44.8452 31.6147 48.5213 31.8507 52.1698C38.9116 48.8847 47.173 48.2606 54.6472 50.4478ZM115.925 74.6438C116.098 74.4695 116.359 74.4271 116.602 74.3937C117.573 74.2602 118.543 74.1267 119.513 73.9932C117.286 72.9875 115.937 70.5984 115.533 68.1884C115.13 65.7784 115.524 63.3144 115.922 60.9035C114.497 62.4887 114.6 64.8804 114.786 67.0035C115.195 71.6501 115.753 74.8182 115.925 74.6438ZM97.6045 97.5312C97.7953 96.9105 98.4449 96.5772 98.9206 96.1351C99.7769 95.3394 100.095 94.1364 100.374 93.0013C101.339 89.0789 102.311 85.1087 102.298 81.0693C102.296 80.2135 102.252 79.3343 102.536 78.5268C102.819 77.7193 103.529 76.989 104.385 76.9849C105.287 76.9805 105.503 75.7287 105.422 74.83C105.144 71.731 104.866 68.6319 104.588 65.5329C104.499 64.5431 104.408 63.5441 104.108 62.5968C102.997 59.0944 98.7175 56.9768 95.2595 58.2185C94.8362 58.3705 94.723 58.9052 94.675 59.3525C94.1427 64.3095 93.6105 69.2665 93.0782 74.2235C92.9837 75.1042 94.1209 75.6662 94.9794 75.4481C95.8379 75.23 96.4933 74.5592 97.2356 74.076C97.978 73.5927 99.0244 73.3144 99.706 73.8801C100.476 74.5195 101.617 73.8093 102.286 73.0647C102.955 72.32 103.827 71.4225 104.778 71.7331C103.662 72.801 102.546 73.8689 101.429 74.9368C101.059 75.291 100.732 75.9983 101.2 76.2074C102.483 75.7524 103.643 74.9552 104.527 73.9203C104.936 73.9072 104.955 74.5493 104.727 74.8888C103.867 76.1678 101.844 76.4527 101.323 77.903C100.108 81.2884 96.3162 83.537 92.7625 82.9802C92.0335 82.866 91.6701 83.8248 91.5824 84.5574C91.2326 87.4785 90.8828 90.3995 90.533 93.3206C90.4525 93.9925 90.3774 94.7033 90.6541 95.321C91.1157 96.3516 92.3505 96.7416 93.4452 97.0189C94.8921 97.3854 96.3557 97.7539 97.8347 97.9139C98.4575 97.9813 98.455 97.7532 97.6045 97.5312ZM39.9578 92.1756C42.0253 92.8681 44.2137 93.1027 46.3819 93.333C47.3013 93.4307 48.2805 93.5183 49.1053 93.1004C50.0763 92.6086 50.5936 91.5428 51.0112 90.5377C53.34 84.9325 54.6696 78.9139 54.9188 72.8493C54.9542 71.9875 53.851 71.6071 52.9904 71.5493C46.1205 71.0882 39.5505 74.108 33.3287 77.0572C33.0305 77.1986 32.7113 77.3598 32.564 77.6551C32.4541 77.8753 32.4599 78.133 32.4681 78.3789C32.5795 81.7293 32.7201 85.1997 34.2185 88.1984C34.6231 89.0083 35.1379 89.7877 35.8667 90.3248C36.3081 90.6502 36.8134 90.876 37.3144 91.0991C38.1839 91.4863 39.0553 91.8733 39.9578 92.1756ZM84.3997 79.7759C85.3154 74.8513 85.9608 69.8764 86.3319 64.8811C86.4589 63.1722 86.5519 61.4349 86.1825 59.7616C85.8131 58.0883 84.9218 56.4617 83.4647 55.5598C82.5669 55.0041 81.5159 54.7548 80.4765 54.5693C78.5795 54.2309 76.6497 54.0774 74.7231 54.1116C73.0231 54.1418 71.2386 54.349 69.8508 55.3314C69.3918 55.6562 68.975 56.0814 68.8073 56.6181C68.6397 57.1548 68.7808 57.8143 69.2464 58.1296C70.4231 58.9264 70.9028 60.4174 71.1233 61.8213C71.3438 63.2253 71.3968 64.6954 72.0366 65.9644C72.3665 66.6188 72.8396 67.1898 73.3357 67.7293C76.0257 70.654 79.5344 72.8176 83.3555 73.9081C84.0273 74.0997 84.882 74.5147 84.74 75.1987C86.8533 76.5318 84.3646 79.9648 84.3997 79.7759ZM78.5758 94.3008C79.3538 93.8281 79.8814 93.0413 80.3458 92.2582C82.3164 88.9357 83.6086 85.2127 84.1201 81.3837C77.032 81.3517 69.9862 78.6773 64.662 73.9981C64.4798 74.7294 64.5147 75.4948 64.5395 76.2481C64.695 80.9508 64.4159 85.6678 63.7071 90.3194C63.5381 91.4282 64.2007 92.5369 65.1113 93.1918C66.0219 93.8466 67.1438 94.1279 68.2452 94.34C70.7281 94.8183 73.2653 95.0144 75.7922 94.9234C76.7532 94.8887 77.754 94.8001 78.5758 94.3008ZM123.304 53.7368C122.89 52.7411 122.58 51.6185 121.723 50.9648C120.866 50.3111 119.252 50.631 119.202 51.7078C120.05 51.5516 120.698 52.5988 120.554 53.4492C120.409 54.2995 119.791 54.9757 119.3 55.6848C118.621 56.6645 118.157 57.7736 117.698 58.8734C116.605 61.4903 116.18 64.3825 116.473 67.203C116.646 68.8636 117.101 70.5693 118.224 71.8049C119.347 73.0404 121.271 73.6582 122.751 72.8849C124.022 72.2207 124.656 70.7564 124.947 69.3524C125.238 67.9485 125.29 66.4787 125.841 65.1548C126.857 62.7122 129.361 61.2366 131.839 60.3102C128.114 59.8042 124.744 57.2088 123.304 53.7368ZM113.003 56.379C113.169 57.0193 113.398 57.6431 113.687 58.2382C113.86 57.3996 114.138 56.5828 114.513 55.8128C114.134 55.7695 113.752 55.7489 113.371 55.7511C113.279 55.7517 113.181 55.7551 113.103 55.8047C112.926 55.9164 112.951 56.1771 113.003 56.379ZM68.1055 55.72C67.8709 55.9087 67.7333 56.315 67.9809 56.4862C68.3601 56.1065 68.7393 55.7269 69.1185 55.3473C69.0401 55.2501 68.9261 55.1823 68.8034 55.1597C68.653 55.4205 68.34 55.5312 68.1055 55.72Z" fill="#F0E8E6"/>
<path d="M133.766 53C134.576 53 135.233 52.3433 135.233 51.5333C135.233 50.7233 134.576 50.0667 133.766 50.0667C132.956 50.0667 132.3 50.7233 132.3 51.5333C132.3 52.3433 132.956 53 133.766 53Z" fill="#5E548E"/>
<path d="M125.366 51.5333C125.808 51.5333 126.166 51.1752 126.166 50.7333C126.166 50.2915 125.808 49.9333 125.366 49.9333C124.925 49.9333 124.566 50.2915 124.566 50.7333C124.566 51.1752 124.925 51.5333 125.366 51.5333Z" fill="#5E548E"/>
<path fill-rule="evenodd" clip-rule="evenodd" d="M49.6129 30.4871C52.0128 30.5023 54.4128 30.5176 56.8127 30.5328C56.9251 30.5335 57.0458 30.5368 57.1364 30.6033C57.3216 30.7392 57.2477 31.0575 57.057 31.1856C56.8664 31.3137 56.6193 31.3083 56.3898 31.3003C54.2778 31.227 52.1594 31.3367 50.0662 31.6278C49.7479 31.672 49.4121 31.7185 49.1144 31.5975C48.8166 31.4765 48.5889 31.12 48.7259 30.8293C48.8691 30.5256 49.2771 30.485 49.6129 30.4871ZM41.5873 30.2514C41.7394 30.403 41.6665 30.6813 41.4975 30.8138C41.3286 30.9464 41.1023 30.9729 40.8886 30.9945C38.761 31.21 36.6333 31.4254 34.5056 31.6408C34.254 31.6663 33.9939 31.691 33.7531 31.6135C33.5124 31.536 33.2946 31.3278 33.2889 31.075C33.283 30.8142 33.5045 30.5926 33.7518 30.5094C33.9991 30.4261 34.2677 30.4495 34.5278 30.4699C36.7079 30.6414 38.9091 30.5425 41.0651 30.1762C41.2456 30.1455 41.4576 30.1221 41.5873 30.2514ZM41.2893 26.1672C41.4482 26.2955 41.3917 26.5705 41.2321 26.6981C41.0726 26.8258 40.8555 26.8469 40.6518 26.863L33.8189 27.4021C33.5631 27.4223 33.2981 27.4413 33.0569 27.354C32.8156 27.2667 32.6039 27.042 32.6178 26.7857C32.6318 26.5262 32.8715 26.3248 33.1241 26.2635C33.3768 26.2022 33.6413 26.248 33.8984 26.286C36.2175 26.6288 38.5757 26.3163 40.9103 26.104C41.0413 26.0921 41.1869 26.0847 41.2893 26.1672ZM50.832 24.8135C52.2578 24.9956 53.7032 25.0233 55.1349 24.8959C55.704 24.8453 56.3921 24.8215 56.7155 25.2926C56.3316 25.6029 55.8041 25.647 55.3115 25.678C53.6789 25.7809 52.0463 25.8838 50.4136 25.9867C50.0412 26.0102 49.5771 25.982 49.4237 25.6418C49.286 25.3366 49.5283 24.9695 49.8395 24.8458C50.1507 24.7222 50.4999 24.771 50.832 24.8135ZM38.515 23.0679C38.5167 23.3145 38.2077 23.4209 37.9637 23.4567L34.3755 23.9826C34.1194 24.0202 33.8548 24.0573 33.6047 23.9905C33.3546 23.9237 33.1208 23.7248 33.0974 23.467C33.0687 23.1514 33.365 22.885 33.6744 22.8163C33.9837 22.7475 34.3042 22.8194 34.6185 22.8599C35.7023 22.9996 36.7957 22.7614 37.8878 22.7239C38.1551 22.7147 38.5131 22.8005 38.515 23.0679ZM55.8285 22.209C56.1062 22.2401 56.3911 22.4057 56.4653 22.675C55.9722 23.0479 55.3205 23.1158 54.7048 23.1704C53.6508 23.2638 52.5968 23.3572 51.5427 23.4506C51.1715 23.4835 50.8002 23.5165 50.4289 23.5494C50.1574 23.5734 49.875 23.5961 49.62 23.4998C49.365 23.4034 49.1472 23.1504 49.1852 22.8805C49.245 22.4552 49.8032 22.3448 50.2326 22.354C51.8259 22.3883 53.4392 22.6287 55.0002 22.3079C55.2739 22.2517 55.5509 22.178 55.8285 22.209ZM57.228 18.1857C49.4182 19.2388 41.411 18.6935 33.7086 20.3594C33.2518 20.4582 32.6142 20.4631 32.4961 20.0109C32.5067 19.4781 33.1958 19.2858 33.7274 19.2479C41.2203 18.7135 48.7132 18.1791 56.2061 17.6448C56.6457 17.6134 57.2627 17.7464 57.228 18.1857Z" fill="#F0E8E6"/>
<path fill-rule="evenodd" clip-rule="evenodd" d="M29.7563 99.1408C29.8379 100.086 28.5354 100.406 27.5871 100.409C22.6582 100.429 17.7343 101.343 13.127 103.094C12.4238 103.362 11.6713 103.698 11.329 104.368C10.8759 105.255 11.3705 106.39 12.1722 106.981C12.9739 107.572 13.9971 107.753 14.9802 107.913C40.5342 112.074 66.4682 113.898 92.353 113.354L92.7691 113.345C95.7544 113.276 98.8012 113.116 101.536 111.934C99.2721 110.347 97.008 108.76 94.7439 107.173C98.6632 106.39 102.707 106.948 106.685 107.341C115.788 108.239 124.978 108.258 134.085 107.395C133.444 108.42 132.034 108.562 130.826 108.588C119.37 108.835 107.901 108.428 96.492 107.37C97.9806 108.349 99.4691 109.329 100.958 110.309C101.497 110.663 102.094 111.114 102.125 111.759C102.172 112.728 100.981 113.212 100.023 113.37C96.8464 113.895 93.6145 113.979 90.3947 114.026C65.2484 114.393 40.0708 112.594 15.2323 108.654C14.0203 108.462 12.7645 108.247 11.754 107.551C10.7434 106.855 10.0544 105.531 10.4791 104.38C10.9015 103.235 12.1866 102.697 13.3469 102.318C18.6567 100.584 24.183 99.5138 29.7563 99.1408ZM63.6566 13.6407C63.7092 25.2165 63.7618 36.7922 63.8144 48.3679C63.8269 51.1231 64.3697 54.6096 67.0341 55.3111C70.7158 53.6115 74.8657 52.94 78.8955 53.392C81.2024 53.6507 83.598 54.3481 85.1597 56.0656C87.302 58.4216 87.3053 61.9696 87.0753 65.1456C86.609 71.5834 85.6907 77.9883 84.3293 84.2977C85.411 84.2294 86.5141 84.6633 87.2593 85.4503C86.1116 85.9752 84.7443 85.9971 83.5804 85.5093C84.3799 89.8427 80.8495 94.118 76.6215 95.3594C72.3934 96.6008 67.8054 95.4303 63.8296 93.5301C63.4567 94.9822 65.3992 95.8354 66.8823 96.0546C70.647 96.6111 74.4117 97.1675 78.1763 97.7239C73.5271 97.8636 68.8624 97.4831 64.2973 96.5916C63.4567 97.7821 65.3603 98.984 66.7989 99.2169C70.6149 99.8344 74.4308 100.452 78.2467 101.07C73.9367 101.041 69.6284 100.753 65.3528 100.209C68.072 102.662 71.7838 103.981 75.441 103.794C73.378 104.472 71.086 104.432 69.0484 103.68C71.5974 107.094 76.8125 107.726 80.621 105.817C84.4295 103.907 86.9162 100.001 88.1327 95.9183C89.3491 91.8353 89.4673 87.5201 89.6829 83.2653C90.0807 75.4112 90.8412 67.5678 92.217 59.825C93.1434 54.611 95.4193 48.3939 100.663 47.6572C91.3207 47.2266 81.9687 46.9944 72.6161 46.9608C69.7741 46.9505 66.2438 47.4154 65.2948 50.0943C64.4834 50.1784 64.6644 48.8021 65.2793 48.2661C67.5749 46.2648 70.9202 46.1912 73.9654 46.2224L94.4002 46.4315C101 46.4991 108.915 47.336 111.903 53.2212C111.816 51.4722 113.401 49.8216 115.153 49.8377C117.062 49.8552 118.659 48.1985 119.217 46.3719C119.774 44.5452 119.528 42.5825 119.278 40.6893C116.198 37.7076 115.392 32.639 117.394 28.8491C117.961 27.7772 118.798 25.2212 123.471 23.5761C126.587 22.4793 129.666 22.5999 132.71 23.9378C138.426 22.8325 142.354 23.2248 144.494 25.1149C147.704 27.9499 147.766 30.2734 145.919 32.3359C148.007 31.5194 150.462 32.9042 151.508 34.8875C152.554 36.8709 152.499 39.2471 152.184 41.4672C151.405 46.9654 149.163 52.2496 145.752 56.6314L145.282 58.0171C153.534 60.1447 160.21 67.4389 161.6 75.847C158.857 69.6629 155.142 63.1135 148.743 60.9179C147.299 62.4326 145.814 64.0131 145.136 65.9929C144.458 67.9726 144.824 70.4741 146.544 71.6667C145.464 71.917 144.384 72.1673 143.304 72.4176C143.664 73.0553 144.023 73.6929 144.383 74.3306C140.302 77.433 139.832 83.3009 139.857 88.4272C139.882 93.5534 139.788 99.3346 136.069 102.863C132.754 106.007 127.695 106.223 123.128 106.078C111.899 105.721 100.704 104.294 89.7453 101.822C88.8136 101.612 87.6334 101.484 87.0963 102.274C83.2087 107.989 75.0793 108.5 68.1848 108.003C59.3286 107.364 50.5234 106.021 41.8795 103.99C36.9765 102.839 31.77 101.235 28.7155 97.2304C25.1547 92.562 25.5659 86.0893 26.1437 80.2463C22.6331 82.1982 18.4712 82.9538 14.4985 82.3605C18.6861 79.6227 20.7169 74.3851 20.755 69.382C20.7932 64.379 19.1232 59.5296 17.2653 54.8841C13.1716 57.2585 11.0178 62.2633 11.3381 66.9848C11.6584 71.7063 14.1635 76.0888 17.5246 79.4202C13.3813 76.8053 10.6396 72.0945 10.4127 67.2003C10.1857 62.3061 12.4797 57.3619 16.3633 54.3748C15.7428 52.2526 12.5411 51.9932 10.8631 53.4331C9.18502 54.873 8.6584 57.2101 8.22676 59.3787C7.42919 63.3857 6.62833 67.4862 7.20782 71.5305C7.78732 75.5748 10.0213 79.6231 13.7649 81.2595C12.0154 82.5206 9.68526 80.7052 8.52339 78.8883C3.8117 71.5202 3.6694 61.4774 8.17046 53.9788C8.71115 53.078 9.33501 52.1904 10.2154 51.6172C11.1489 51.0094 12.2868 50.8096 13.3963 50.7114C17.7723 50.3238 22.2623 51.3452 26.0399 53.5878C26.0062 41.3097 25.9725 29.0315 25.9387 16.7534C25.9368 16.0503 25.9466 15.3042 26.3215 14.7093C26.8637 13.8489 27.9743 13.5822 28.974 13.3956C38.068 11.698 47.2651 10.553 56.4977 9.96924C59.5144 9.77849 63.6429 10.6181 63.6566 13.6407ZM57.4904 10.709C47.7017 11.1698 37.9483 12.3798 28.3438 14.3251C27.9351 14.4079 27.5022 14.5046 27.2051 14.7972C26.8004 15.1959 26.7691 15.8276 26.7638 16.3957C26.6491 28.6214 26.6976 40.8486 26.9092 53.073C28.0846 52.7799 29.26 52.4869 30.4353 52.1938C29.9759 49.6854 29.5145 47.143 29.7109 44.6004C29.9074 42.0579 30.8404 39.4721 32.7596 37.7927C34.8367 35.9751 37.7352 35.4615 40.4885 35.2682C43.1362 35.0823 45.7998 35.1254 48.4401 35.3968C51.1353 35.6738 53.9744 36.2723 55.9189 38.1591C58.7276 40.8846 58.773 45.3001 58.6276 49.2111C58.2416 59.5935 57.8556 69.9758 57.4696 80.3581C57.379 82.7952 57.2831 85.2651 56.5658 87.5961C55.8485 89.927 54.4249 92.1424 52.271 93.2862C50.1574 94.4087 47.6284 94.3769 45.2505 94.1067C42.9803 93.8487 40.7319 93.3986 38.5374 92.7628C37.2043 92.3766 35.8704 91.9116 34.7375 91.1099C30.9886 88.4569 30.5453 83.1631 30.4543 78.5714C29.0148 78.3115 27.6076 79.407 27.0132 80.7436C26.4189 82.0802 26.4452 83.5988 26.4821 85.0611C26.5742 88.7087 26.7164 92.5384 28.5784 95.6763C31.4514 100.518 37.486 102.306 42.9958 103.462C52.7753 105.514 62.7044 106.853 72.6782 107.463C68.227 105.196 64.2807 101.316 63.3418 96.4095C63.0868 95.0767 63.0594 93.7123 63.0328 92.3556C62.5132 65.828 61.9935 39.3003 61.4738 12.7727C61.4409 11.0951 59.1665 10.6301 57.4904 10.709ZM95.4364 54.2623C95.1888 54.8662 95.0088 55.5361 95.1737 56.1676C95.3386 56.7991 95.9521 57.3504 96.5959 57.2432C99.4793 56.763 102.587 58.1832 104.112 60.6775C105.369 62.7355 105.544 65.2534 105.686 67.6612L106.975 89.5933C107.113 91.937 107.181 94.5161 105.724 96.3573C103.834 98.7462 100.286 98.8259 97.2541 98.5293C94.7526 98.2845 92.1211 97.8685 90.179 96.273C90.2478 97.2017 89.9771 98.1517 89.4293 98.9047C88.753 99.834 89.8447 101.057 90.9068 101.496C92.2039 102.033 93.6146 102.22 95.0067 102.401C101.383 103.228 107.763 104.027 114.147 104.795C119.061 105.387 124.053 105.959 128.938 105.165C125.848 104.298 122.89 102.958 120.201 101.206C118.86 100.331 117.562 99.3326 116.647 98.0183C115.153 95.873 114.839 93.1471 114.59 90.5448C113.851 82.8067 113.301 75.0505 112.94 67.2855C112.675 61.5582 110.838 55.9115 107.684 51.1236C107.12 50.2674 106.43 49.379 105.433 49.1406C101.468 48.193 96.9832 50.4909 95.4364 54.2623ZM77.2576 103.825C77.5939 103.882 77.939 103.957 78.2162 104.156C78.4934 104.355 78.6868 104.708 78.6014 105.038C78.5161 105.369 78.0802 105.586 77.8048 105.384C77.5009 105.162 77.0967 105.155 76.7346 105.052C76.3724 104.95 75.9927 104.649 76.0578 104.278C76.1403 103.808 76.7872 103.745 77.2576 103.825ZM63.2955 103.964C63.7127 104.051 64.2012 104.349 64.1157 104.766C64.0402 105.134 63.5848 105.257 63.2123 105.307C62.7948 105.362 62.3491 105.414 61.97 105.23C61.591 105.047 61.3451 104.529 61.5938 104.189C61.7615 103.96 62.0754 103.899 62.3592 103.887C62.6729 103.875 62.9881 103.9 63.2955 103.964ZM88.2576 99.3241C87.8617 99.6097 87.5896 100.031 87.3102 100.431C86.0363 102.256 84.4218 103.843 82.5747 105.084C82.6209 105.28 82.9144 105.231 83.0885 105.13C85.2273 103.89 86.7536 101.843 88.2185 99.8523C88.3383 99.6895 88.4372 99.4168 88.2576 99.3241ZM107.382 50.0189C108.523 51.3662 109.673 52.7264 110.508 54.2823C111.413 55.9691 111.921 57.8382 112.331 59.7082C114.621 70.1688 114.009 81.0444 115.493 91.6494C115.761 93.5629 116.115 95.5173 117.111 97.1732C118.277 99.1133 120.213 100.458 122.185 101.569C123.78 102.468 125.445 103.257 127.197 103.789C129.982 104.636 133.329 104.695 135.464 102.716C136.663 101.605 137.294 100.019 137.786 98.4604C139.898 91.7789 140.13 84.5142 138.45 77.7114C138.492 81.78 139.02 85.8391 138.899 89.9061C138.779 93.9731 137.944 98.1612 135.553 101.454C135.079 102.106 134.53 102.732 133.815 103.102C132.872 103.591 131.752 103.581 130.698 103.453C128.858 103.228 127.059 102.672 125.412 101.819C124.162 101.171 123.005 100.357 121.883 99.5048C120.58 98.5138 119.301 97.4463 118.388 96.0875C117.483 94.7407 116.978 93.1673 116.578 91.5949C113.657 80.113 115.746 67.7275 112.279 56.3983C111.462 53.7282 110.044 50.8635 107.382 50.0189ZM37.6896 100.531C44.4335 101.572 51.1774 102.613 57.9213 103.654C57.7504 104.1 57.1339 104.116 56.6603 104.052C50.8928 103.282 45.1253 102.511 39.3578 101.741C38.7058 101.654 38.0538 101.567 37.4018 101.48C37.0923 101.438 36.7081 101.326 36.6689 101.017C36.6138 100.58 37.2547 100.464 37.6896 100.531ZM115.922 60.9035C114.497 62.4887 114.6 64.8804 114.787 67.0035C115.195 71.6501 115.603 76.2968 116.012 80.9434C116.031 81.1608 116.054 81.3899 116.182 81.567C116.39 81.8568 116.794 81.9071 117.15 81.9322C121.998 82.2738 126.847 82.6154 131.695 82.9571C131.333 83.5301 130.516 83.5387 129.84 83.4865C125.275 83.1342 120.692 83.02 116.115 83.1446C116.036 85.4915 116.382 87.8521 117.131 90.0778C117.456 91.0424 118.706 91.248 119.723 91.2891C123.601 91.4461 127.479 91.6031 131.357 91.7602C131.536 92.1619 130.909 92.4129 130.47 92.4078C126.483 92.362 122.497 92.3161 118.51 92.2703C117.964 92.264 117.767 93.0376 117.973 93.5434C118.51 94.8653 120.222 95.1499 121.647 95.2391L130.559 95.7972C130.763 95.8099 130.805 96.1298 130.657 96.2693C130.508 96.4088 130.282 96.4127 130.078 96.4084L119.643 96.187C122.341 99.3982 126.125 101.68 130.224 102.567C131.108 102.759 132.044 102.884 132.902 102.601C133.929 102.262 134.686 101.39 135.279 100.485C138.423 95.6888 138.214 89.5168 137.893 83.7906L137.529 77.3C137.656 77.1251 137.917 77.0645 138.108 77.1656C138.182 76.8475 137.768 76.6587 137.447 76.5997C130.354 75.2968 123.076 73.9919 115.977 75.2644C115.751 75.1712 115.753 74.8182 115.925 74.6438C116.098 74.4695 116.36 74.4271 116.603 74.3937C117.573 74.2602 118.543 74.1267 119.513 73.9932C117.287 72.9875 115.937 70.5984 115.534 68.1884C115.13 65.7784 115.524 63.3144 115.922 60.9035ZM81.0615 100.361C81.6932 100.478 82.4227 100.671 82.6693 101.265C81.9659 101.744 81.0422 101.695 80.1937 101.627C79.9602 101.609 79.7052 101.58 79.5412 101.413C79.251 101.117 79.4675 100.572 79.8408 100.393C80.2142 100.213 80.6541 100.285 81.0615 100.361ZM32.9463 96.025C40.2121 98.308 47.7413 99.7514 55.3363 100.317C55.9254 100.361 56.7173 100.642 56.6042 101.222C48.5718 100.313 40.5884 98.9708 32.7007 97.2018C32.1973 97.0889 31.5516 96.7304 31.739 96.2498C31.9037 95.8275 32.5138 95.8891 32.9463 96.025ZM59.5589 99.5488C59.9299 99.5479 60.2881 99.675 60.6349 99.807C60.8112 99.8741 61.0053 99.9606 61.0737 100.136C61.2194 100.511 60.7025 100.779 60.3068 100.851C60.0404 100.899 59.774 100.948 59.5076 100.996C59.2829 101.037 59.0411 101.076 58.8343 100.979C58.4983 100.821 58.4111 100.337 58.6038 100.02C58.7964 99.7025 59.1879 99.5497 59.5589 99.5488ZM93.7732 98.7477C96.9871 99.359 100.279 99.3937 103.55 99.4264C103.804 99.4289 103.872 99.8272 103.691 100.004C103.51 100.182 103.228 100.189 102.975 100.184C99.921 100.124 96.8632 99.8026 93.8182 100.043C93.4868 100.069 93.1425 100.1 92.8312 99.9832C92.5199 99.8666 92.2544 99.552 92.3136 99.2249C92.3646 98.9428 92.6394 98.7452 92.9208 98.6907C93.2022 98.6361 93.4916 98.6942 93.7732 98.7477ZM101.034 48.3644C97.3949 48.9078 94.3377 52.1466 94.005 55.8108C93.6943 59.2331 92.7496 62.5611 92.0772 65.931C89.9179 76.7529 90.5729 87.9682 88.6638 98.837C89.3612 97.5672 89.5492 96.0893 89.7248 94.6514L94.3541 56.7396C94.4773 55.7309 94.6033 54.7105 94.9657 53.7611C95.956 51.1662 98.5157 49.5362 101.034 48.3644ZM84.4883 97.4663C84.6865 97.5293 84.8896 97.612 85.0218 97.7726C85.154 97.9333 85.1871 98.1927 85.0426 98.3424C84.9337 98.4553 84.763 98.4756 84.6068 98.4894C84.0953 98.5346 83.5838 98.5798 83.0723 98.625C82.7962 98.6493 82.511 98.6728 82.2478 98.5856C81.9847 98.4985 81.7474 98.2704 81.7398 97.9934C81.7269 97.524 82.306 97.2882 82.7745 97.2576C83.3521 97.2198 83.9366 97.291 84.4883 97.4663ZM95.2598 58.2185C94.8364 58.3705 94.7233 58.9052 94.6753 59.3525L93.0785 74.2235C92.9839 75.1042 94.1212 75.6662 94.9797 75.4481C95.8382 75.23 96.4936 74.5592 97.2359 74.076C97.9782 73.5927 99.0247 73.3144 99.7063 73.8801C100.477 74.5195 101.617 73.8093 102.286 73.0647C102.955 72.32 103.827 71.4225 104.779 71.7331C103.662 72.801 102.546 73.8689 101.429 74.9368C101.059 75.291 100.733 75.9983 101.201 76.2074C102.483 75.7524 103.643 74.9552 104.527 73.9203C104.936 73.9072 104.955 74.5493 104.727 74.8888C103.868 76.1678 101.845 76.4527 101.324 77.903C100.108 81.2884 96.3164 83.537 92.7628 82.9802C92.0338 82.866 91.6704 83.8248 91.5827 84.5574C91.2329 87.4785 90.883 90.3995 90.5332 93.3206C90.4528 93.9925 90.3777 94.7033 90.6543 95.321C91.116 96.3516 92.3508 96.7416 93.4455 97.0189C95.5017 97.5398 97.5917 98.0645 99.7115 97.9896C101.831 97.9147 104.023 97.1568 105.366 95.5143C104.994 95.0316 104.166 95.6506 103.624 95.3713C103.095 95.098 103.376 94.1883 103.945 94.0095C104.513 93.8306 105.114 94.1148 105.642 94.3912C105.973 93.744 106.314 93.0512 106.246 92.3272C106.178 91.6031 105.513 90.887 104.805 91.0498C104.339 91.1569 104.149 90.3495 104.525 90.0538C104.9 89.7582 105.44 89.854 105.905 89.9645C105.93 88.217 105.956 86.4696 105.982 84.7221C105.987 84.3654 105.988 83.9909 105.819 83.6768C105.65 83.3628 105.249 83.1429 104.928 83.2977C104.49 83.5088 104.111 82.763 104.404 82.3751C104.697 81.9873 105.25 81.9371 105.736 81.9202C105.773 80.3682 105.673 78.8129 105.436 77.2785C103.607 78.195 103.287 80.6135 103.103 82.6511C102.749 86.5588 102.037 90.434 100.979 94.2124C100.742 95.0589 100.476 95.9244 99.9217 96.607C99.3678 97.2895 98.4552 97.7532 97.6047 97.5312C97.7955 96.9105 98.4452 96.5772 98.9209 96.1351C99.7771 95.3394 100.095 94.1364 100.374 93.0013C101.34 89.0789 102.311 85.1087 102.299 81.0693L102.297 80.7984C102.291 80.0292 102.282 79.2493 102.536 78.5268C102.819 77.7193 103.529 76.989 104.385 76.9849C105.287 76.9805 105.503 75.7287 105.422 74.83C105.144 71.731 104.866 68.6319 104.588 65.5329C104.499 64.5431 104.408 63.5441 104.108 62.5968C102.997 59.0944 98.7178 56.9768 95.2598 58.2185ZM108.876 96.0144C109.3 96.1283 109.712 96.5644 109.536 96.9666C109.367 97.3508 108.839 97.372 108.421 97.3325C108.217 97.3131 108 97.2887 107.84 97.1595C107.56 96.9334 107.6 96.4538 107.862 96.2073C108.124 95.9609 108.529 95.9212 108.876 96.0144ZM57.9081 95.5849C58.1871 95.6453 58.4778 95.7266 58.6784 95.9297C58.879 96.1329 58.9453 96.4949 58.746 96.6993C58.5831 96.8663 58.3203 96.8693 58.0872 96.8611C57.752 96.8493 57.4168 96.8376 57.0816 96.8258C56.8875 96.819 56.6801 96.8077 56.5242 96.6918C56.1912 96.4441 56.3373 95.864 56.6949 95.6534C57.0525 95.4428 57.5025 95.497 57.9081 95.5849ZM32.0816 92.544C33.958 93.4165 36.0196 93.7971 38.0582 94.1523C42.1852 94.8713 46.3246 95.5188 50.474 96.0946C51.0546 96.1752 51.6977 96.2892 52.0514 96.7566C50.4447 96.8664 48.8387 96.5988 47.2504 96.3321C42.0144 95.4528 36.7785 94.5736 31.5426 93.6944C30.9937 93.6022 30.2851 93.2974 30.392 92.7512C30.5187 92.1038 31.4834 92.2658 32.0816 92.544ZM64.6623 73.9981C64.4801 74.7294 64.5149 75.4948 64.5398 76.2481C64.6952 80.9508 64.4162 85.6678 63.7074 90.3194C63.5384 91.4282 64.2009 92.5369 65.1116 93.1918C66.0222 93.8466 67.1441 94.1279 68.2455 94.34C70.7284 94.8183 73.2656 95.0144 75.7925 94.9234C76.7535 94.8887 77.7542 94.8001 78.5761 94.3008C79.3541 93.8281 79.8817 93.0413 80.3461 92.2582C82.3167 88.9357 83.6089 85.2127 84.1204 81.3837C77.0323 81.3517 69.9865 78.6773 64.6623 73.9981ZM83.2009 92.6433C83.6848 92.803 84.1687 92.9627 84.6527 93.1224C84.8141 93.1757 84.9871 93.2374 85.0828 93.3778C85.2446 93.6151 85.0875 93.9623 84.8372 94.1031C84.5869 94.2439 84.283 94.2363 83.9961 94.2249C83.4737 94.2042 82.8965 94.1602 82.5318 93.7855C82.1672 93.4108 82.2922 92.6026 82.814 92.5685C82.9459 92.5599 83.0753 92.6019 83.2009 92.6433ZM108.569 92.7134C108.856 92.7594 109.16 92.8125 109.382 93.0015C109.604 93.1906 109.695 93.565 109.49 93.7729C109.408 93.8566 109.294 93.8997 109.183 93.9383C108.754 94.0874 108.279 94.2065 107.855 94.0441C107.431 93.8817 107.143 93.3217 107.409 92.9545C107.654 92.617 108.157 92.6477 108.569 92.7134ZM33.3289 77.0572C33.0308 77.1986 32.7116 77.3598 32.5643 77.6551C32.4544 77.8753 32.4602 78.133 32.4683 78.3789C32.5798 81.7293 32.7204 85.1997 34.2188 88.1984C34.6234 89.0083 35.1382 89.7877 35.8669 90.3248C36.3084 90.6502 36.8137 90.876 37.3147 91.0991C38.1842 91.4863 39.0556 91.8733 39.9581 92.1756C42.0256 92.8681 44.2139 93.1027 46.3821 93.333C47.3016 93.4307 48.2808 93.5183 49.1056 93.1004C50.0766 92.6086 50.5939 91.5428 51.0115 90.5377C53.3403 84.9325 54.6699 78.9139 54.9191 72.8493C54.9545 71.9875 53.8513 71.6071 52.9907 71.5493C46.1208 71.0882 39.5507 74.108 33.3289 77.0572ZM55.9859 72.6061C55.8096 72.838 55.7877 73.1482 55.7703 73.4389C55.3592 80.2973 53.6522 87.0759 50.766 93.3111C53.5158 91.9194 55.5647 89.217 56.1621 86.1936C56.3675 85.1541 56.4095 84.0902 56.451 83.0314C56.5817 79.6929 56.7124 76.3544 56.8431 73.0158C56.85 72.8398 56.8513 72.6463 56.7393 72.5103C56.5541 72.2856 56.1622 72.3743 55.9859 72.6061ZM57.1248 89.311C57.4737 89.3299 57.8017 89.475 58.1408 89.5593C58.4446 89.6348 58.5362 90.0673 58.3667 90.3304C58.1972 90.5936 57.8702 90.7079 57.5603 90.7514C57.2367 90.7968 56.8887 90.7797 56.6105 90.6084C56.3323 90.4372 56.1517 90.0797 56.2628 89.7724C56.3817 89.4438 56.7759 89.2921 57.1248 89.311ZM108.769 88.4044C109.095 88.4719 109.375 88.674 109.643 88.871C109.789 88.978 109.944 89.098 109.992 89.2723C110.053 89.495 109.906 89.7347 109.704 89.8457C109.501 89.9567 109.259 89.9646 109.029 89.9462C108.702 89.9201 108.364 89.8391 108.117 89.623C107.871 89.4068 107.745 89.0275 107.899 88.7377C108.055 88.4435 108.442 88.337 108.769 88.4044ZM31.1546 78.0327C31.0654 78.1918 31.0834 78.3869 31.104 78.5681L31.5887 82.8362C31.8518 85.1523 32.1963 87.6485 33.8152 89.3256C34.0851 89.1976 33.9328 88.7917 33.7626 88.5462C32.4513 86.6538 32.1987 84.2475 31.986 81.955C31.8614 80.6113 31.7367 79.2675 31.612 77.9237C31.4867 77.7912 31.2438 77.8736 31.1546 78.0327ZM117.482 86.7756C121.929 86.8854 126.377 86.9952 130.825 87.105C131.506 87.1218 132.188 87.1388 132.862 87.2398C132.721 87.7262 132.082 87.8177 131.576 87.8129C127.115 87.7709 122.64 87.4948 118.204 87.9585C117.825 87.9981 117.415 88.0372 117.086 87.8446C116.757 87.652 116.61 87.1236 116.912 86.8915C117.069 86.7711 117.284 86.7707 117.482 86.7756ZM105.262 85.9016C105.359 85.9337 105.46 85.9677 105.539 86.0328C105.805 86.2491 105.706 86.7116 105.434 86.9203C105.163 87.129 104.796 87.1532 104.453 87.1616C104.097 87.1703 103.681 87.1422 103.477 86.8489C103.222 86.4807 103.525 85.9359 103.948 85.7866C104.37 85.6373 104.836 85.7624 105.262 85.9016ZM108.513 85.0029C108.928 85.0477 109.332 85.1931 109.68 85.4231C109.946 85.5988 109.893 86.0403 109.651 86.2478C109.409 86.4553 109.063 86.4844 108.745 86.4729C108.422 86.4613 108.086 86.4123 107.826 86.2225C107.565 86.0328 107.41 85.6662 107.549 85.3757C107.709 85.0441 108.148 84.9634 108.513 85.0029ZM63.7074 74.8526C63.4651 78.3435 63.3565 81.8436 63.382 85.3427C63.3831 85.4906 63.4837 85.7007 63.6101 85.6238C63.8779 82.6825 64.0093 79.7289 64.0038 76.7755C64.0026 76.1213 63.9893 75.4429 63.7074 74.8526ZM58.9526 83.8078C59.3342 83.8366 59.6709 84.0585 59.9819 84.2815C60.0776 84.3501 60.1762 84.4234 60.2298 84.5284C60.3407 84.7458 60.2077 85.0257 59.9994 85.1529C59.7911 85.2801 59.5332 85.29 59.2893 85.2787C58.7347 85.2528 58.0374 84.951 58.0994 84.3992C58.1422 84.0189 58.571 83.7791 58.9526 83.8078ZM109.437 81.4564C109.809 81.6089 110.191 82.007 109.999 82.3596C109.869 82.5983 109.553 82.65 109.281 82.6527C108.965 82.6558 108.65 82.6301 108.339 82.5759C107.901 82.4996 107.834 81.8117 108.174 81.5258C108.513 81.2399 109.027 81.2878 109.437 81.4564ZM152.718 74.626C152.871 74.8822 152.873 75.1976 152.871 75.4961C152.858 77.6085 152.846 79.7208 152.833 81.8332C152.831 82.0897 152.796 82.4006 152.564 82.5083C152.362 82.6014 152.114 82.4707 152.002 82.2793C151.891 82.088 151.88 81.8557 151.877 81.634C151.844 79.7481 152.054 77.8173 151.52 76.0083C151.361 75.4708 151.171 74.7995 151.587 74.423C151.911 74.1287 152.493 74.25 152.718 74.626ZM98.4095 74.3813C96.8082 75.3749 95.1239 76.3964 93.2443 76.5318C92.9024 76.5564 92.7485 76.9649 92.681 77.301C92.3774 78.8131 92.2099 80.3525 92.1812 81.8946C92.1794 81.9888 92.1803 82.0902 92.2347 82.1671C92.3214 82.2895 92.4981 82.2946 92.6479 82.2868C94.1142 82.2099 95.6005 82.0569 96.9622 81.5079C98.324 80.9589 99.5629 79.9645 100.118 78.6051C100.673 77.2457 100.406 75.512 99.2727 74.5784C99.0289 74.3776 98.6778 74.2148 98.4095 74.3813ZM86.151 80.3272C86.6654 80.4623 87.1799 80.5974 87.6943 80.7325C87.8866 80.783 88.1004 80.85 88.1923 81.0263C88.3005 81.2338 88.1745 81.5016 87.9786 81.6297C87.7827 81.7579 87.539 81.7822 87.3058 81.8029C86.936 81.8358 86.5552 81.8677 86.2004 81.7584C85.8456 81.6492 85.5188 81.363 85.4782 80.9939C85.4375 80.6249 85.7919 80.2329 86.151 80.3272ZM14.787 52.1777C16.7124 52.9575 18.1616 54.6443 19.0605 56.5171C19.9594 58.3899 20.3687 60.4548 20.7254 62.5012C21.3158 65.8883 21.7859 69.3457 21.3554 72.7568C20.925 76.1679 19.499 79.5693 16.8556 81.7677C18.7812 81.8705 21.0803 81.7943 22.1257 80.1739C22.5948 79.4467 23.6045 79.1249 24.4079 79.4465C23.9028 79.0098 24.284 78.1968 24.6589 77.6443C26.1948 75.3805 27.2487 72.7786 27.6253 70.069C28.3555 64.815 26.5196 59.4902 23.7956 54.9386C22.0282 51.9854 17.9056 50.722 14.787 52.1777ZM60.4396 79.3942C60.8369 79.5505 60.7443 80.2072 60.373 80.418C60.0017 80.6288 59.5389 80.5341 59.1251 80.4288C58.9321 80.3797 58.7272 80.3223 58.5962 80.1724C58.2903 79.8223 58.6414 79.2306 59.0944 79.1261C59.5474 79.0217 60.007 79.2239 60.4396 79.3942ZM74.7234 54.1116C73.0233 54.1418 71.2389 54.349 69.851 55.3314C69.3921 55.6562 68.9752 56.0814 68.8076 56.6181C68.6399 57.1548 68.7811 57.8143 69.2467 58.1296C70.4234 58.9264 70.9031 60.4174 71.1236 61.8213C71.3441 63.2253 71.3971 64.6954 72.0369 65.9644C72.3668 66.6188 72.8398 67.1898 73.336 67.7293C76.026 70.654 79.5347 72.8176 83.3558 73.9081C84.0276 74.0997 84.8823 74.5147 84.7403 75.1987C79.2429 74.0458 74.2298 70.7283 71.0198 66.1189C70.0443 69.1146 68.1202 71.7936 65.593 73.6749C70.5228 77.87 76.9021 80.3278 83.3722 80.5248C83.6653 80.5337 83.997 80.5225 84.1947 80.306C84.3243 80.1642 84.3649 79.9648 84.4 79.7759C85.3157 74.8513 85.9611 69.8764 86.3322 64.8811C86.4592 63.1722 86.5522 61.4349 86.1828 59.7616C85.8134 58.0883 84.9221 56.4617 83.465 55.5598C82.5672 55.0041 81.5162 54.7548 80.4767 54.5693C78.5798 54.2309 76.6499 54.0774 74.7234 54.1116ZM108.502 78.0783C108.948 78.0787 109.51 78.2089 109.588 78.6477C109.666 79.085 109.168 79.4108 108.727 79.467C108.405 79.5082 108.055 79.4691 107.799 79.2686C107.543 79.0681 107.424 78.6752 107.602 78.4031C107.784 78.1241 108.169 78.0781 108.502 78.0783ZM141.437 69.2966C140.618 72.4658 140.141 75.7115 139.665 78.9499C139.641 79.1111 139.627 79.3016 139.749 79.41C141.024 77.8256 142.194 76.1563 143.249 74.417C143.353 74.2454 143.455 74.0208 143.338 73.8576C143.074 73.4883 142.81 73.1189 142.546 72.7496C142.35 72.4755 142.148 72.1143 142.32 71.8248C142.46 71.5894 142.774 71.5398 143.047 71.5146L145.287 71.3083C145.263 71.1695 145.179 71.0499 145.096 70.9355C144.496 70.1007 143.842 69.2227 142.882 68.8566C142.349 68.6536 141.579 68.7449 141.437 69.2966ZM37.6681 36.5108C36.0302 36.7857 34.2562 37.2594 33.3057 38.6213C32.7737 39.3835 32.578 40.3248 32.4217 41.2411C31.807 44.8452 31.615 48.5213 31.851 52.1698C38.9118 48.8847 47.1733 48.2606 54.6475 50.4478C55.2815 50.6333 56.0659 51.1955 55.7331 51.7661C50.1264 49.6923 43.8815 49.383 38.0973 50.8927C36.2256 51.3812 34.4068 52.053 32.5458 52.5807C29.7802 53.3648 26.9238 53.8285 24.0521 53.9593C29.2822 61.0604 29.959 71.2285 25.7162 78.9601C28.356 78.4605 30.8364 77.3513 33.2703 76.2139C36.9044 74.5156 40.5228 72.7247 44.3831 71.6345C48.2434 70.5443 52.4171 70.1878 56.2462 71.3831C56.6941 71.5229 56.941 70.8764 56.9589 70.4075L57.7887 48.6684C57.9144 45.3751 57.9249 41.7338 55.7689 39.2412C53.8611 37.0357 50.7498 36.3458 47.8442 36.0978C44.4528 35.8082 41.025 35.9473 37.6681 36.5108ZM88.2547 76.8597C88.3619 76.9297 88.4726 77.0179 88.4976 77.1435C88.5485 77.3982 88.2385 77.5604 87.9886 77.6313C87.6255 77.7343 87.2515 77.8373 86.8763 77.7979C86.501 77.7585 86.1192 77.5429 85.9959 77.1863C85.8726 76.8297 86.1205 76.3617 86.4977 76.3547C87.1161 76.3433 87.7368 76.5217 88.2547 76.8597ZM141.513 63.1803C140.148 63.9462 138.516 64.226 136.973 63.959C137.17 64.5093 138.036 64.7013 138.04 65.286C138.042 65.642 137.707 65.8926 137.516 66.1932C137.37 66.4246 137.306 66.6976 137.248 66.9653C136.698 69.4825 136.382 72.0508 136.306 74.6262C136.293 75.07 136.403 75.6561 136.845 75.7045C137.759 75.8046 138.62 76.3172 139.144 77.0731C139.573 74.3727 140.002 71.6724 140.431 68.9721C140.53 68.3455 140.614 67.6456 140.247 67.1283C139.742 66.4164 140.182 65.4412 140.625 64.6891L141.513 63.1803ZM60.1887 74.852C60.6549 74.945 61.1853 75.3476 61.0087 75.7889C60.8999 76.0609 60.5713 76.1707 60.2788 76.1863C59.9863 76.202 59.6821 76.1586 59.4082 76.2624C59.0858 76.3846 58.7063 76.0992 58.667 75.7567C58.6276 75.4142 58.8657 75.0817 59.1759 74.9313C59.4861 74.7809 59.8506 74.7845 60.1887 74.852ZM108.496 74.4349C108.79 74.4755 109.1 74.5402 109.314 74.7458C109.528 74.9515 109.587 75.3428 109.359 75.5331C109.284 75.5959 109.189 75.6291 109.096 75.6608C108.692 75.7987 108.26 75.9337 107.846 75.8314C107.432 75.7291 107.072 75.2895 107.215 74.8876C107.38 74.4242 108.009 74.3675 108.496 74.4349ZM135.249 68.8836C134.938 68.9586 134.711 69.2183 134.506 69.464L133.27 70.944C133.028 71.2333 133.453 71.6364 133.829 71.6679C134.204 71.6993 134.643 71.611 134.91 71.8767C135.19 72.155 135.075 72.6403 134.846 72.9617C134.616 73.2831 134.291 73.5457 134.153 73.9153C133.945 74.4679 134.288 75.1605 134.853 75.3307C135.16 75.4231 135.591 75.2809 135.594 74.9604C135.61 73.0868 135.719 71.2141 135.922 69.3514C135.956 69.0332 135.56 68.8086 135.249 68.8836ZM72.5384 69.8141C72.7752 69.9714 72.9284 70.2232 73.0862 70.4595C74.4421 72.4898 76.7099 73.8851 79.1333 74.1802C79.6939 74.2485 80.3553 74.3166 80.6364 74.8064C80.1083 75.3293 79.2479 75.2655 78.524 75.0971C75.9582 74.5002 73.6071 73.0179 71.9624 70.96C71.7001 70.6318 71.4606 70.1325 71.7531 69.831C71.9511 69.627 72.3017 69.6568 72.5384 69.8141ZM133.916 60.8428C132.104 61.288 130.295 61.9163 128.826 63.0673C127.358 64.2183 126.266 65.9671 126.277 67.8329C126.292 70.1992 125.129 72.544 123.237 73.9648L126.423 74.3398C126.796 74.3837 127.214 74.4154 127.506 74.1793C127.933 73.8338 127.824 73.1706 127.716 72.6318C127.608 72.0931 127.632 71.3811 128.144 71.183C128.781 70.937 129.307 71.8199 129.211 72.4954C129.115 73.1709 128.723 73.821 128.845 74.4922C130.354 74.7062 131.868 74.8865 133.385 75.0331C133.083 74.7854 133.05 74.316 133.203 73.9566C133.355 73.5973 133.652 73.3223 133.94 73.0588C134.247 72.7782 133.804 72.2837 133.391 72.2392C132.977 72.1947 132.491 72.2941 132.199 71.9975C131.837 71.6286 132.109 71.0103 132.418 70.5956C133.018 69.7911 133.762 68.8214 133.376 67.8951C132.434 65.6362 132.641 62.9316 133.916 60.8428ZM64.4279 54.6705C64.1753 60.8543 64.2099 67.0498 64.5314 73.2304C66.8936 71.9487 68.6196 69.6933 69.6899 67.2282C70.343 65.7242 70.7801 64.0666 70.5191 62.4478C70.3244 61.2407 69.7529 60.1256 69.0884 59.0992C67.9095 57.2784 66.3708 55.6348 64.4279 54.6705ZM119.202 51.7078C120.05 51.5516 120.699 52.5988 120.554 53.4492C120.41 54.2995 119.791 54.9757 119.3 55.6848C118.622 56.6645 118.157 57.7736 117.698 58.8734C116.606 61.4903 116.18 64.3825 116.474 67.203C116.646 68.8636 117.101 70.5693 118.224 71.8049C119.347 73.0404 121.271 73.6582 122.751 72.8849C124.022 72.2207 124.656 70.7564 124.947 69.3524C125.239 67.9485 125.291 66.4787 125.841 65.1548C126.857 62.7122 129.362 61.2366 131.84 60.3102C128.115 59.8042 124.745 57.2088 123.304 53.7368C122.891 52.7411 122.581 51.6185 121.723 50.9648C120.866 50.3111 119.252 50.631 119.202 51.7078ZM87.7168 71.6281C87.9788 71.6783 88.2358 71.7545 88.4829 71.855C88.8906 72.0209 89.3286 72.4795 89.0663 72.833C88.923 73.0262 88.6478 73.0494 88.4074 73.0556C87.969 73.0668 87.4964 73.0681 87.1383 72.8149C86.7802 72.5618 86.6563 71.9493 87.0174 71.7005C87.2158 71.5638 87.4802 71.5827 87.7168 71.6281ZM107.464 70.5842C107.819 70.6143 108.172 70.6635 108.521 70.7316C108.694 70.7653 108.881 70.8122 108.989 70.9508C109.154 71.1609 109.05 71.4903 108.842 71.6572C108.634 71.8241 108.357 71.871 108.093 71.9123C107.69 71.9754 107.26 72.0352 106.888 71.8674C106.517 71.6997 106.263 71.2084 106.49 70.8697C106.688 70.5744 107.11 70.5542 107.464 70.5842ZM6.08593 68.6767C5.78557 68.6734 5.68165 69.0745 5.69076 69.3747C5.71695 70.2375 5.8916 71.0957 6.20475 71.9001C6.29192 71.989 6.39313 71.8034 6.38095 71.6795L6.08593 68.6767ZM63.8034 70.8982C63.616 70.9998 63.5446 71.2692 63.6571 71.4504L63.6617 71.4569L63.6576 71.4614C63.6525 71.4674 63.6472 71.4745 63.6415 71.4831C63.5661 71.5972 63.6718 71.7784 63.8082 71.7688C63.9005 71.4882 63.8988 71.1777 63.8034 70.8982ZM59.8994 69.677C60.3059 69.7669 60.7471 70.1042 60.646 70.508C60.579 70.7756 60.2974 70.9325 60.0282 70.9924C59.7589 71.0522 59.4743 71.0482 59.2173 71.1481C58.8902 71.2751 58.4964 71.0114 58.4291 70.6671C58.3617 70.3228 58.5726 69.9635 58.877 69.7889C59.1813 69.6144 59.5569 69.6012 59.8994 69.677ZM62.2516 12.7171C62.2752 31.3324 62.7029 49.9472 63.5342 68.544L63.6217 70.4668L63.6348 69.8483C63.6588 68.4029 63.6376 66.9568 63.6164 65.5112C63.3683 48.5666 63.1201 31.6219 62.8719 14.6773C62.8615 13.9678 62.8057 13.1603 62.2516 12.7171ZM88.8773 66.9549C89.1054 67.0231 89.3341 67.1267 89.482 67.3131C89.63 67.4996 89.6723 67.7861 89.526 67.9739C89.3843 68.1557 89.1277 68.1901 88.8981 68.2105L87.9188 68.2974C87.7586 68.3116 87.5867 68.3234 87.4474 68.2429C87.335 68.1779 87.2606 68.0594 87.2264 67.9341C87.1236 67.557 87.3786 67.1477 87.7315 66.9796C88.0844 66.8115 88.5029 66.8428 88.8773 66.9549ZM9.98783 52.3831C8.96957 53.3836 8.43995 54.7666 7.9506 56.1077C6.58705 59.8445 5.29126 63.8108 5.96405 67.7313C6.17209 67.7695 6.27125 67.4864 6.28668 67.2755C6.56326 63.4932 7.31908 59.7463 8.53032 56.1525C8.99248 54.7813 9.54834 53.3888 10.575 52.3691C10.5609 52.1208 10.1652 52.2087 9.98783 52.3831ZM135.169 60.5576C134.992 60.6013 134.877 60.7688 134.784 60.9263C133.907 62.4132 133.495 64.1689 133.617 65.8904C133.668 66.6012 133.897 67.42 134.56 67.6791C135.1 67.161 135.64 66.6428 136.179 66.1246C136.265 66.0423 136.353 65.9571 136.4 65.8481C136.519 65.5755 136.349 65.2713 136.194 65.0181C135.425 63.7664 134.847 62.1803 135.488 60.8584C135.568 60.6938 135.347 60.514 135.169 60.5576ZM146.383 58.9533C146.297 58.9983 146.231 59.0726 146.167 59.1454C144.573 60.9472 143.035 62.7973 141.553 64.6921C141.244 65.0877 140.921 65.5341 140.951 66.0354C140.979 66.4812 141.292 66.8694 141.672 67.1039C142.052 67.3384 142.495 67.4452 142.929 67.5487C143.045 67.5763 143.172 67.6032 143.281 67.5549C143.381 67.5104 143.445 67.4117 143.503 67.3182C144.41 65.8559 145.33 64.3646 145.758 62.698C145.85 62.3426 146.158 62.0944 146.404 61.8223C146.888 61.2879 147.171 60.5763 147.188 59.8555C147.193 59.6115 147.164 59.3541 147.023 59.1549C146.882 58.9558 146.6 58.8404 146.383 58.9533ZM107.582 66.0859C107.801 66.1403 108.043 66.2236 108.142 66.4272C108.315 66.786 107.908 67.1601 107.528 67.2779C107.232 67.3692 106.903 67.4008 106.62 67.2771C106.337 67.1534 106.122 66.8412 106.187 66.5389C106.301 66.0024 107.05 65.9539 107.582 66.0859ZM60.2628 65.3025C60.3665 65.3953 60.4625 65.5046 60.5018 65.638C60.5809 65.9066 60.3933 66.2027 60.1361 66.3131C59.8788 66.4235 59.5784 66.3809 59.3192 66.2752C59.0462 66.1639 58.7803 65.951 58.7456 65.6583C58.7059 65.3235 59.0092 65.0154 59.3429 64.967C59.6765 64.9186 60.0117 65.0776 60.2628 65.3025ZM89.7898 62.3591C90.056 62.4675 90.0837 62.8704 89.9001 63.0916C89.7165 63.3127 89.4103 63.3863 89.1238 63.4105C88.8374 63.4346 88.541 63.424 88.2733 63.5289C87.862 63.6899 87.4147 63.193 87.5126 62.7623C87.6105 62.3316 88.0731 62.064 88.5143 62.0434C88.9555 62.0228 89.3808 62.1924 89.7898 62.3591ZM107.126 61.7113C107.503 61.7298 107.876 61.8289 108.213 62.0001C108.359 62.0744 108.51 62.177 108.552 62.3356C108.638 62.6622 108.228 62.8864 107.896 62.9501C107.602 63.0065 107.304 63.0401 107.005 63.0505C106.636 63.0633 106.191 62.9921 106.043 62.6533C105.929 62.39 106.068 62.0672 106.302 61.9008C106.536 61.7345 106.839 61.6973 107.126 61.7113ZM131.461 37.6023C129.259 37.9576 127.047 38.2521 124.828 38.4854C123.221 38.6543 121.708 39.5661 120.807 40.9076C120.622 41.1833 120.495 41.6231 120.78 41.7921C121.589 40.8592 122.687 40.1804 123.882 39.8737C124.31 39.7641 124.778 39.7043 125.181 39.8839C125.584 40.0635 125.872 40.5579 125.69 40.9597C125.41 41.5767 124.516 41.4041 123.84 41.3629C121.959 41.2481 120.332 43.4007 120.956 45.1787C121.394 43.4814 123.817 42.7445 125.176 43.8526C126.534 44.9607 126.368 47.3943 124.915 48.3753C124.435 48.6994 123.819 48.9254 123.6 49.4617C123.412 49.9214 123.593 50.4406 123.773 50.9034C124.056 51.6297 124.338 52.356 124.621 53.0823C125.214 54.6051 125.844 56.1835 127.044 57.2927C127.967 58.1456 129.163 58.6531 130.384 58.9506C134.786 60.0234 139.741 58.3161 142.548 54.7596C142.773 54.4746 143.286 54.745 143.326 55.1058C143.366 55.4666 143.12 55.7911 142.875 56.0598C141.619 57.4431 140.035 58.527 138.29 59.1973C137.466 59.5141 136.486 59.8568 136.232 60.703C136.022 61.4038 136.464 62.1782 137.098 62.5429C137.732 62.9076 138.505 62.9384 139.233 62.8589C140.683 62.7003 142.086 62.1326 143.239 61.2384C143.588 60.9673 143.926 60.6504 144.082 60.2363C144.229 59.8441 144.195 59.4105 144.16 58.9932L144.129 58.6345C143.992 57.0787 143.816 55.5046 143.182 54.0819C142.877 53.3974 142.469 52.7562 142.244 52.0413C141.967 51.1597 141.984 50.2139 141.798 49.3088C141.611 48.4036 141.14 47.4635 140.278 47.1298C140.506 46.5515 141.074 46.1875 141.442 45.6865C141.809 45.1855 141.863 44.3101 141.284 44.0838C141.008 43.9756 140.692 44.0688 140.429 44.2059C139.317 44.7833 138.717 46.1963 139.074 47.3972C139.307 48.1809 138.069 48.7067 137.402 48.2333C136.735 47.7599 136.571 46.8585 136.44 46.0515C135.93 42.9233 134.907 39.551 132.236 37.8458C132.002 37.6968 131.735 37.5581 131.461 37.6023ZM60.0293 59.7916C60.3805 59.9056 60.7308 60.2211 60.6577 60.583C60.5886 60.9252 60.1948 61.0854 59.8507 61.1443C59.3627 61.2278 58.7262 61.1321 58.589 60.6563C58.4584 60.2035 58.9324 59.7697 59.4009 59.7201C59.6121 59.6978 59.8273 59.7261 60.0293 59.7916ZM116.359 53.2761C116.032 53.5864 115.872 54.0295 115.723 54.4554C115.388 55.4163 115.048 56.4052 115.086 57.4223C115.111 58.0771 114.731 58.6669 114.46 59.2634C114.189 59.8599 114.042 60.6239 114.467 61.1225C115.482 60.2689 115.726 58.8319 115.949 57.5245C116.216 55.9613 116.579 54.3409 117.59 53.1191C117.236 52.8392 116.687 52.9657 116.359 53.2761ZM89.6076 57.6325C89.8689 57.7165 90.1647 57.8844 90.1679 58.159C90.1718 58.4928 89.7609 58.6464 89.4324 58.7065C89.2678 58.7366 89.1031 58.7667 88.9385 58.7968C88.5189 58.8736 88.0693 58.9472 87.6793 58.7745C87.2894 58.6018 87.0297 58.0754 87.2842 57.7331C87.4488 57.5118 87.7518 57.4515 88.0271 57.4345C88.5601 57.4015 89.0992 57.469 89.6076 57.6325ZM51.456 52.8108C51.9151 53.0304 52.4286 53.463 52.2586 53.9427C47.5292 52.9115 42.4766 53.4215 38.0486 55.3769C36.0562 56.2567 34.1859 57.4201 32.1238 58.1215C31.4184 58.3614 30.6482 58.5456 29.9355 58.328C29.2228 58.1104 28.6285 57.3542 28.837 56.6388C29.0326 55.9673 29.7804 55.6481 30.443 55.4238C33.7084 54.3184 37.0307 53.3809 40.3923 52.6162C44.0601 51.7819 48.0626 51.1878 51.456 52.8108ZM119.364 52.7542C119.026 52.7528 118.742 53.0006 118.52 53.255C117.982 53.8721 117.599 54.6124 117.314 55.3804C116.96 56.3345 116.751 57.3422 116.696 58.3583C117.674 56.6761 118.719 55.0331 119.829 53.4348C120.022 53.1574 119.702 52.7556 119.364 52.7542ZM113.371 55.7511C113.279 55.7517 113.181 55.7551 113.103 55.8047C112.927 55.9164 112.951 56.1771 113.003 56.379C113.169 57.0193 113.398 57.6431 113.687 58.2382C113.86 57.3996 114.138 56.5828 114.513 55.8128C114.134 55.7695 113.753 55.7489 113.371 55.7511ZM39.2627 53.5894C36.4633 54.4498 33.6639 55.3101 30.8645 56.1705C30.5301 56.2733 30.1421 56.432 30.0709 56.7745C30.2985 57.1066 30.732 57.2475 31.1341 57.2281C31.5363 57.2086 31.918 57.0542 32.2907 56.9019C35.1307 55.7416 37.9707 54.5812 40.8107 53.4208C40.3035 53.279 39.7661 53.4347 39.2627 53.5894ZM68.8036 55.1597C68.6532 55.4205 68.3403 55.5312 68.1057 55.72C67.8712 55.9087 67.7336 56.315 67.9812 56.4862C68.3604 56.1065 68.7396 55.7269 69.1188 55.3473C69.0404 55.2501 68.9264 55.1823 68.8036 55.1597ZM98.3401 54.9577C100.375 55.1697 102.428 55.2779 104.466 55.1023C104.994 55.0569 105.624 55.0356 105.937 55.4625C105.542 55.8648 104.921 55.9134 104.358 55.9376C102.242 56.0282 100.127 56.1188 98.0109 56.2094C97.5982 56.2271 97.0755 56.1745 96.9416 55.7837C96.8361 55.4761 97.0757 55.1367 97.3766 55.0133C97.6775 54.8898 98.0166 54.9241 98.3401 54.9577ZM129.799 52.7344C130.291 53.3333 130.471 54.1759 130.266 54.9236C130.215 55.1081 130.142 55.2891 130.024 55.4397C129.714 55.8349 129.143 55.9516 128.655 55.8347C128.166 55.7177 127.748 55.407 127.376 55.0705C126.992 54.7238 126.632 54.3287 126.447 53.8453C126.263 53.3619 126.285 52.7738 126.611 52.3729C126.881 52.0424 127.316 51.8839 127.742 51.8528C128.515 51.7962 129.307 52.1355 129.799 52.7344ZM61.2033 54.1268C61.3977 54.2838 61.3651 54.6102 61.1991 54.797C61.0331 54.9839 60.7799 55.0636 60.5374 55.1241C60.2511 55.1955 59.9499 55.2514 59.6627 55.1831C59.3756 55.1149 59.1063 54.8921 59.071 54.5991C59.0198 54.174 59.4647 53.8413 59.8877 53.7746C60.3494 53.7018 60.8396 53.833 61.2033 54.1268ZM127.546 52.8755C127.33 53.1546 127.472 53.6581 127.822 53.7059C128.225 53.7611 128.539 54.1851 128.474 54.5873C128.423 54.903 128.808 55.1669 129.114 55.0721C129.419 54.9773 129.596 54.6349 129.589 54.3151C129.582 53.9954 129.43 53.6973 129.257 53.4283C129.066 53.1317 128.833 52.8437 128.511 52.6994C128.189 52.555 127.762 52.5964 127.546 52.8755ZM126.471 24.21C123.538 24.7473 120.632 26.0286 118.74 28.3339C116.847 30.6392 116.193 34.0892 117.672 36.6788C118.195 37.594 118.993 38.392 119.997 38.7141C121 39.0363 122.214 38.7992 122.883 37.9853C123.643 37.0621 125.176 37.9475 126.319 37.5971C127.9 37.1123 129.543 36.8311 131.195 36.7624C131.587 36.7461 131.991 36.7436 132.356 36.8854C132.753 37.0393 133.067 37.3477 133.368 37.6481C134.414 38.6901 135.481 39.7621 136.1 41.1023C137.082 43.2275 136.839 45.8188 138.079 47.8043C138.224 46.5592 138.369 45.3142 138.514 44.0691C138.568 43.6071 138.628 43.1274 138.878 42.735C139.127 42.3426 139.627 42.0672 140.064 42.226C140.835 42.5061 141.638 42.807 142.191 43.4127C142.745 44.0183 142.95 45.0279 142.418 45.6524C141.903 46.256 142.487 47.1282 142.76 47.8726C143.233 49.1622 142.677 50.6358 143.048 51.9581C143.356 53.0536 144.246 53.8714 145.097 54.6277C145.345 54.8489 145.635 55.0846 145.967 55.0544C146.244 55.0291 146.467 54.8223 146.656 54.6181C147.786 53.4002 148.56 51.8559 148.859 50.2218C148.98 49.5625 148.751 48.6019 148.087 48.6919C148.268 47.11 149.722 46.0324 150.576 44.6885C151.497 43.239 151.715 41.4568 151.757 39.7399C151.799 38.0145 151.631 36.1392 150.481 34.852C149.1 33.3056 146.415 33.19 144.906 34.612C144.53 34.9665 144.034 35.435 143.585 35.1785C143.937 34.5475 144.289 33.9164 144.64 33.2854C145.214 32.257 145.799 31.1913 145.916 30.0197C146.146 27.7082 144.386 25.5195 142.21 24.7066C140.034 23.8937 137.577 24.2308 135.394 25.0258C134.847 25.2251 134.201 25.6531 134.349 26.2161C134.435 26.5422 134.765 26.739 134.935 27.0305C135.04 27.2123 135.03 27.2705 134.91 27.4176C134.838 27.5064 134.708 27.7636 134.591 27.7134C133.354 26.2802 132.015 24.7797 130.201 24.2376C128.998 23.8783 127.706 23.9838 126.471 24.21ZM112.416 53.7693C112.261 53.6776 111.965 53.6174 111.994 53.7949C112.078 54.229 112.469 54.5519 112.89 54.6846C113.312 54.8173 113.765 54.7949 114.206 54.7712C114.379 54.762 114.563 54.7486 114.701 54.6437C114.816 54.5557 114.879 54.4174 114.938 54.2848C115.038 54.0577 115.139 53.8306 115.239 53.6035C114.419 53.0695 113.258 54.2683 112.416 53.7693ZM88.7224 52.2863C89.0675 52.3122 89.4101 52.3724 89.7433 52.4658C90.0321 52.5467 90.3638 52.7157 90.3781 53.0153C90.3969 53.4096 89.884 53.5706 89.4907 53.6046C89.0904 53.6391 88.6902 53.6737 88.29 53.7083C87.9984 53.7335 87.6685 53.7464 87.4541 53.5471C87.1662 53.2795 87.2824 52.7604 87.5942 52.5211C87.906 52.2817 88.3304 52.257 88.7224 52.2863ZM98.0825 52.2006C99.9967 52.4568 101.937 52.5186 103.864 52.3847C104.09 52.369 104.336 52.3557 104.522 52.4849C104.708 52.6142 104.754 52.9473 104.551 53.0476C104.49 53.078 104.419 53.0812 104.35 53.0838C102.021 53.1717 99.6915 53.2596 97.3622 53.3475C97.1498 53.3555 96.916 53.3566 96.7527 53.2206C96.4602 52.9772 96.6281 52.4566 96.9634 52.2768C97.2988 52.097 97.7053 52.1501 98.0825 52.2006ZM116.668 50.3034C115.925 50.3435 115.168 50.4124 114.481 50.7008C113.795 50.9892 113.179 51.5318 112.974 52.2478C112.932 52.3931 112.917 52.5719 113.028 52.674C113.115 52.7535 113.246 52.7546 113.363 52.75C114.599 52.7015 115.828 52.5175 117.024 52.2025C117.618 52.0459 118.335 51.6681 118.254 51.0587C118.212 50.7379 117.935 50.4872 117.63 50.3809C117.324 50.2747 116.992 50.286 116.668 50.3034ZM30.8778 50.2138C30.7592 50.8413 30.7302 51.4857 30.792 52.1214C30.9456 52.2873 31.1478 51.9634 31.1348 51.7377C31.1051 51.2224 31.0188 50.7103 30.8778 50.2138ZM70.6544 49.4462C74.9363 49.6397 79.2183 49.8333 83.5002 50.0268C83.8998 50.0448 84.4308 50.1979 84.4072 50.5973C83.8962 50.9255 83.2368 50.8576 82.6336 50.7873C78.8167 50.3425 74.9552 50.2811 71.126 50.6041C70.7955 50.632 70.4444 50.659 70.1494 50.5074C69.8543 50.3557 69.6641 49.9515 69.8557 49.6806C70.0232 49.4437 70.3645 49.4331 70.6544 49.4462ZM60.2714 48.9971C60.4598 49.0256 60.656 49.0748 60.7928 49.2074C61.1058 49.5106 60.9125 50.0868 60.5363 50.3065C60.16 50.5261 59.694 50.4953 59.2599 50.4578C58.7836 50.4166 58.629 49.7021 58.9419 49.3406C59.2548 48.979 59.7987 48.9257 60.2714 48.9971ZM75.3314 47.4133C82.3099 47.7754 89.2884 48.1374 96.2669 48.4994C96.6406 48.5188 97.1353 48.6626 97.1156 49.0364C95.9649 49.2436 94.7731 49.2206 93.6313 48.9689L94.6452 49.8414C94.1618 50.1462 93.6469 50.4609 93.0756 50.4736C92.5043 50.4862 91.8823 50.065 91.8984 49.4938C92.1875 49.3604 92.4767 49.227 92.7658 49.0936C87.1284 48.6106 81.4647 48.4344 75.8082 48.5659C75.4818 48.5735 75.1335 48.5764 74.8578 48.4014C74.5822 48.2264 74.4427 47.801 74.6709 47.5675C74.8341 47.4005 75.0982 47.4012 75.3314 47.4133ZM120.518 48.3465C120.267 48.3603 120.053 48.5273 119.858 48.6868C119.627 48.8758 119.396 49.0649 119.165 49.2539C118.923 49.452 118.661 49.6883 118.647 50.0007C118.639 50.1703 118.768 50.3715 118.934 50.3334C118.98 50.3227 119.02 50.2948 119.059 50.2675C119.609 49.8793 120.159 49.4911 120.71 49.1029C120.822 49.0237 120.942 48.9341 120.978 48.8016C121.045 48.5587 120.77 48.3328 120.518 48.3465ZM129.079 46.3132C129.1 46.8793 128.819 47.4097 128.719 47.9674C128.62 48.525 128.81 49.235 129.361 49.3656C129.524 49.4041 129.571 49.6367 129.479 49.7763C129.387 49.9159 129.214 49.9762 129.049 50.006C128.539 50.0988 127.934 49.9349 127.699 49.4719C127.582 49.2401 127.573 48.9704 127.566 48.7107C127.548 48.0152 127.53 47.3196 127.512 46.6241C127.5 46.1486 127.553 45.563 127.989 45.3711C128.507 45.1425 129.057 45.7471 129.079 46.3132ZM121.488 49.4684C121.387 49.5153 121.318 49.6241 121.319 49.7351L121.294 49.7416C121.35 49.8656 121.551 49.8849 121.63 49.7739C121.708 49.6629 121.623 49.4799 121.488 49.4684ZM120.525 45.8332C120.294 45.8391 120.036 45.881 119.899 46.0673C119.753 46.2665 119.812 46.5588 119.962 46.755C120.112 46.9512 120.333 47.0775 120.539 47.2135C121.408 47.7862 122.101 48.6205 122.505 49.579C122.78 49.2173 123.054 48.8556 123.329 48.494C123.534 48.2239 123.751 47.9149 123.708 47.5785C123.676 47.3354 123.513 47.131 123.34 46.9577C122.605 46.2232 121.563 45.8068 120.525 45.8332ZM32.0179 40.2376C31.6952 40.2641 31.5279 40.6264 31.4264 40.934C31.2718 41.4025 31.1172 41.8711 30.9627 42.3396C30.7937 42.8515 30.6236 43.3691 30.5773 43.9062C30.5466 44.2621 30.5709 44.6202 30.5952 44.9766C30.6712 46.0896 30.7471 47.2027 30.823 48.3157C30.8377 48.5309 31.0014 48.828 31.1794 48.7061C31.1055 45.8631 31.3879 43.011 32.0179 40.2376ZM123.303 44.3303C123.01 44.4419 122.699 44.638 122.656 44.9486C122.614 45.2593 123.071 45.5476 123.249 45.289C123.475 44.9592 124.041 45.1314 124.228 45.485C124.415 45.8386 124.36 46.264 124.357 46.6641C124.355 47.0641 124.446 47.5232 124.795 47.7191C124.854 47.1839 124.912 46.6487 124.971 46.1135C125.043 45.4528 125.039 44.6334 124.458 44.3101C124.11 44.1165 123.675 44.1887 123.303 44.3303ZM132.71 44.0279C133.186 44.0491 133.693 44.2149 133.953 44.6135C134.214 45.0122 134.076 45.6652 133.617 45.7936C132.963 45.9768 132.352 45.0551 131.712 45.284C131.313 45.4271 131.066 45.9894 130.649 45.9087C130.39 45.8587 130.247 45.549 130.298 45.2907C130.35 45.0324 130.543 44.8256 130.749 44.6621C131.299 44.2262 132.009 43.9967 132.71 44.0279ZM59.8945 43.5572C60.3529 43.6313 60.8016 44.1331 60.56 44.5296C60.4922 44.6409 60.3819 44.72 60.2666 44.7807C59.9807 44.9312 59.6281 44.9823 59.3329 44.8511C59.0378 44.7199 58.8301 44.3794 58.91 44.0664C59.0104 43.6731 59.4938 43.4924 59.8945 43.5572ZM133.456 40.9475C133.771 41.2475 134.017 41.8123 133.664 42.0668C133.29 42.336 132.843 41.8816 132.485 41.5913C132.086 41.2669 131.545 41.1238 131.037 41.2082C130.713 41.2622 130.407 41.4032 130.081 41.4505C129.756 41.4978 129.377 41.423 129.199 41.1461C129.013 40.8556 129.131 40.4443 129.387 40.2132C129.644 39.9821 130 39.8976 130.344 39.8661C131.471 39.763 132.635 40.1676 133.456 40.9475ZM59.8787 40.0283C60.1602 40.1933 60.3118 40.5824 60.1551 40.8686C59.9482 41.2468 59.4056 41.2417 58.9872 41.1377C58.8365 41.1003 58.678 41.0509 58.5782 40.9319C58.3401 40.6479 58.6071 40.2024 58.9394 40.0384C59.2321 39.8941 59.5972 39.8632 59.8787 40.0283Z" fill="#282828"/>
<path fill-rule="evenodd" clip-rule="evenodd" d="M22.1003 78.0623C22.1388 78.1691 22.1743 78.2887 22.1303 78.3933C22.0514 78.5811 21.7945 78.5883 21.5909 78.5867C20.1585 78.5752 18.8269 79.8055 18.7252 81.2343C18.7144 81.3852 18.507 81.4542 18.3728 81.3843C18.2386 81.3145 18.1695 81.1635 18.1231 81.0195C17.8614 80.2076 18.03 79.2975 18.4472 78.5534C18.8643 77.8093 19.5099 77.2158 20.2111 76.7301C20.4831 76.5417 20.8219 76.3608 21.1297 76.4824C21.333 76.5627 21.4659 76.7567 21.5766 76.9452C21.7852 77.3004 21.9607 77.6749 22.1003 78.0623ZM21.2684 77.8998C21.1423 77.5141 20.6306 77.3757 20.2484 77.512C19.8662 77.6483 19.5876 77.973 19.3275 78.2845C19.081 78.5798 18.823 78.902 18.7939 79.2856C19.453 78.5875 20.3288 78.097 21.2684 77.8998Z" fill="#5E548E"/>
</g>
<defs>
<clipPath id="clip0_1309_50753">
<rect width="162" height="118" fill="white" transform="translate(0.5)"/>
</clipPath>
</defs>
</svg>
