<svg width="201" height="200" viewBox="0 0 201 200" fill="none" xmlns="http://www.w3.org/2000/svg">
<path fill-rule="evenodd" clip-rule="evenodd" d="M157.69 51.7511C131.069 36.4745 110.312 81.3168 95.2356 86.962C64.8515 98.3389 8.41565 108.234 19.1785 130.352C33.9567 160.723 85.3766 163.753 122.148 160.723C169.976 156.781 210.03 81.7864 157.69 51.7511Z" fill="#5E548E"/>
<path fill-rule="evenodd" clip-rule="evenodd" d="M162.648 104.546C162.922 104.787 163.015 105.166 163.084 105.529L163.501 107.804C163.559 108.121 163.824 108.271 163.927 108.091C164.035 107.9 164.324 107.979 164.518 108.082L166.935 109.368C166.113 109.959 165.142 110.341 164.138 110.471C163.643 110.535 163.563 111.213 163.616 111.709L163.759 113.06C163.803 113.48 163.142 113.623 162.811 113.359C162.48 113.095 162.355 112.653 162.094 112.32C161.674 111.781 160.93 111.581 160.249 111.643C159.568 111.705 158.931 111.991 158.308 112.272C157.907 112.454 157.465 111.973 157.496 111.533C157.524 111.146 157.772 110.821 158.025 110.518L158.126 110.398C158.41 110.061 158.694 109.662 158.646 109.224C158.606 108.859 158.345 108.565 158.084 108.303L157.931 108.149C157.689 107.902 157.459 107.627 157.417 107.288C157.368 106.901 157.721 106.456 158.092 106.576C159.521 107.038 161.241 106.137 161.676 104.7C161.789 104.327 162.355 104.287 162.648 104.546Z" fill="#F0E8E6"/>
<path fill-rule="evenodd" clip-rule="evenodd" d="M162.648 104.546C162.922 104.787 163.015 105.166 163.084 105.529L163.501 107.804C163.559 108.121 163.432 108.611 163.129 108.5C162.699 107.588 162.47 106.582 162.464 105.573C162.3 105.415 162.056 105.65 161.953 105.853L160.933 107.886C160.754 108.244 160.217 108.165 159.863 107.978L159.674 107.877C159.367 107.718 159.032 107.577 158.741 107.734C158.592 108.179 159.253 108.401 159.596 108.721C159.987 109.087 159.964 109.744 159.691 110.204C159.417 110.665 158.954 110.975 158.507 111.27C159.15 111.376 159.835 111.189 160.334 110.77C160.559 110.581 160.766 110.338 161.054 110.278C161.499 110.184 161.9 110.571 162.131 110.963C162.362 111.355 162.545 111.814 162.94 112.04C163.138 111.729 163.033 111.337 162.908 110.977L162.849 110.809C162.706 110.406 162.641 109.872 162.992 109.628C163.124 109.536 163.288 109.509 163.449 109.492L165.173 109.319L164.18 108.595C164.012 108.473 163.824 108.271 163.927 108.091C164.035 107.9 164.324 107.979 164.518 108.082L166.935 109.368C166.113 109.959 165.142 110.341 164.138 110.471C163.643 110.535 163.563 111.213 163.616 111.709L163.759 113.06C163.803 113.48 163.142 113.623 162.811 113.359C162.48 113.095 162.355 112.653 162.094 112.32C161.674 111.781 160.93 111.581 160.249 111.643C159.568 111.705 158.931 111.991 158.308 112.272C157.907 112.454 157.465 111.973 157.496 111.533C157.524 111.146 157.772 110.821 158.025 110.518L158.126 110.398C158.41 110.061 158.694 109.662 158.646 109.224C158.606 108.859 158.345 108.565 158.084 108.303L157.931 108.149C157.689 107.902 157.459 107.627 157.417 107.288C157.368 106.901 157.721 106.456 158.092 106.576C159.521 107.038 161.241 106.137 161.676 104.7C161.789 104.327 162.355 104.287 162.648 104.546Z" fill="#5E548E"/>
<path fill-rule="evenodd" clip-rule="evenodd" d="M67.5289 63.7369C66.4944 59.1393 69.3129 51.5077 74.3487 48.4392C79.3845 45.3706 85.8259 45.1604 91.4344 46.9827C91.2556 41.5647 96.7501 36.9156 102.152 37.3632C107.555 37.8108 112.037 42.6611 112.763 48.0332C113.329 52.219 111.18 57.2048 107.025 57.963C108.493 63.2109 109.31 68.7326 108.504 74.1222C107.698 79.5119 105.133 84.7767 100.804 88.0876C99.6093 89.695 100.512 92.1199 102.085 93.3597C103.659 94.5995 105.695 95.0353 107.577 95.7195C115.465 98.5864 121.019 106.369 122.314 114.661C123.608 122.954 121.023 131.554 116.35 138.526C113.149 143.301 108.795 147.542 103.347 149.378C95.7012 151.956 87.3178 149.446 79.8931 146.286C77.0629 145.082 74.1806 143.713 72.1828 141.375C70.041 138.867 65.9931 140.222 63.0739 141.755C65.0149 142.56 66.9559 143.366 68.8969 144.171C69.314 144.344 69.7665 144.55 69.9599 144.958C70.3671 145.817 69.3641 146.643 68.5151 147.071C67.6029 147.53 66.6906 147.989 65.7783 148.449C60.1786 151.269 54.3467 154.15 48.0795 154.324C41.2276 154.514 34.7552 151.452 28.5886 148.459C27.9031 148.126 27.1766 147.756 26.8039 147.091C26.4312 146.427 26.6395 145.39 27.3761 145.195C34.294 143.366 40.8436 140.155 46.5267 135.807C46.092 133.1 46.1944 130.308 46.8264 127.64C46.9178 127.255 47.0493 126.832 47.3931 126.634C48.2384 126.148 48.9727 127.428 49.1221 128.391C49.4991 130.823 49.8761 133.255 50.2531 135.686C54.7802 135.186 59.1739 133.523 62.898 130.901C59.9934 128.561 57.0887 126.222 54.1841 123.883C52.5081 122.533 50.8904 121.726 49.9852 119.083C49.3818 117.321 49.8688 115.511 51.4463 113.653C49.6853 104.877 48.9148 98.2618 49.1348 93.8069C49.1935 92.6177 49.3266 91.334 50.127 90.4526C51.5398 88.8968 54.314 89.5677 55.6036 91.2271C56.8932 92.8865 57.109 95.1134 57.2758 97.2083C62.186 96.6084 67.0963 96.0085 72.0066 95.4086C73.8031 95.1891 75.6634 94.9747 77.3925 95.5094C79.5618 96.1801 81.3041 98.0801 81.7849 100.299C83.8569 99.7392 86.1137 99.0495 87.2839 97.2502C88.454 95.4508 87.4629 92.3213 85.3186 92.4141C78.6109 92.7044 72.0509 87.727 70.5243 81.1889C70.136 79.5261 69.9851 77.6783 68.8178 76.432C66.968 74.4572 65.5586 71.9113 65.5676 69.2055C65.5766 66.4997 66.7103 66.1768 67.5289 63.7369ZM27.4895 147.008C27.6405 147.234 27.9041 147.352 28.1537 147.459C30.7152 148.555 33.2766 149.651 35.8381 150.747C37.0036 151.246 38.1728 151.746 39.3917 152.095C42.7909 153.068 46.4537 152.83 49.8334 153.869C50.2433 153.995 50.6833 153.865 51.0915 153.733C54.0392 152.784 56.9522 151.727 59.8228 150.565C62.826 149.349 65.8021 148.008 68.4686 146.168C68.7111 146 68.9629 145.814 69.0736 145.541C69.1843 145.268 69.0823 144.888 68.7988 144.808C66.9993 144.297 65.2258 143.694 63.4876 143.002C62.9288 142.78 62.2998 142.463 62.1812 141.873C60.6499 141.935 59.3109 142.901 58.1814 143.936C57.0519 144.972 55.9909 146.142 54.5991 146.784C53.2074 147.425 51.3394 147.37 50.3753 146.178C50.2723 146.051 50.1689 145.905 50.0106 145.863C49.8522 145.822 49.6489 145.98 49.7227 146.126C49.9138 146.504 49.5033 146.983 49.0801 146.957C48.657 146.93 48.3261 146.545 48.222 146.134C48.1178 145.723 47.5525 146.457 46.7331 146.579C45.9137 146.701 45.0444 146.176 44.7722 145.393C44.5479 144.748 43.6685 144.737 42.9965 144.616C41.4685 144.342 40.3082 142.741 40.5231 141.203C36.1318 142.668 31.8201 144.371 27.6135 146.303C27.3667 146.416 27.3384 146.782 27.4895 147.008Z" fill="#F0E8E6"/>
<path d="M89.1389 83.7529C90.4283 83.7529 91.4736 82.7076 91.4736 81.4182C91.4736 80.1288 90.4283 79.0835 89.1389 79.0835C87.8495 79.0835 86.8042 80.1288 86.8042 81.4182C86.8042 82.7076 87.8495 83.7529 89.1389 83.7529Z" fill="#5E548E"/>
<path d="M72.9333 81.8302C73.6159 81.8302 74.1693 81.2768 74.1693 80.5942C74.1693 79.9115 73.6159 79.3582 72.9333 79.3582C72.2507 79.3582 71.6973 79.9115 71.6973 80.5942C71.6973 81.2768 72.2507 81.8302 72.9333 81.8302Z" fill="#5E548E"/>
<path fill-rule="evenodd" clip-rule="evenodd" d="M100.288 90.7885C100.502 91.8983 101.138 92.9733 101.984 93.6401C103.557 94.8799 107.093 96.1564 108.976 96.8406C109.147 96.9029 108.181 97.4484 106.934 98.6546C103.558 101.92 96.1773 107.768 88.9662 104.829C88.1234 104.486 87.4186 104.091 86.8446 103.671C86.3157 103.285 91.1706 103.842 95.7092 102.981C100.273 102.116 104.518 99.8301 103.382 98.018C102.314 96.3146 99.3095 93.4296 99.0752 91.7326C98.763 89.4718 100.104 89.8348 100.288 90.7885Z" fill="#F0E8E6"/>
<path fill-rule="evenodd" clip-rule="evenodd" d="M27.3967 146.366C27.3967 145.46 30.2525 144.727 35.1344 142.891C38.4922 141.628 45.0369 137.973 48.257 137.803C50.3997 137.69 58.9626 140.825 64.5509 143.076C67.3608 144.208 69.5283 144.917 69.5283 145.28C69.5283 146.01 63.5621 149.532 57.4643 151.846C54.488 152.976 51.6956 153.988 49.1347 153.92C41.3271 153.712 27.3967 148.659 27.3967 146.366Z" fill="#F0E8E6"/>
<path fill-rule="evenodd" clip-rule="evenodd" d="M137.696 71.1437C126.5 75.9255 117.147 84.0964 108.236 92.4054L107.691 92.9143C107.171 93.4002 106.382 93.9082 105.821 93.4704L107.552 91.8941C116.613 83.6622 125.98 75.4998 137.191 70.6502C145.809 66.9217 145.718 67.7175 137.696 71.1437ZM89.4705 150.794L94.7225 156.515C94.9799 156.795 95.2479 157.096 95.3199 157.47C95.392 157.844 95.1754 158.3 94.7969 158.339L83.9833 159.47C82.1872 159.658 80.3556 158.413 79.8384 156.682C79.3212 154.952 80.149 152.925 81.7133 152.023C83.2776 151.121 85.4233 151.405 86.7219 152.66C87.0435 152.971 87.6084 152.707 87.8367 152.322C88.0651 151.938 88.1144 151.466 88.3504 151.086C88.5863 150.706 89.168 150.465 89.4705 150.794ZM80.7503 154.096C80.0797 155.369 80.5038 157.093 81.6515 157.96C82.2139 158.385 82.9044 158.612 83.6003 158.725C84.5832 158.883 85.7236 158.763 86.3555 157.994C86.5862 157.713 86.7275 157.369 86.824 157.018C87.1452 155.852 86.9819 154.56 86.3806 153.51C86.2169 153.224 85.9652 152.926 85.6362 152.94C85.4798 152.947 85.3347 153.026 85.179 153.042C84.9199 153.069 84.6801 152.921 84.444 152.811C83.14 152.204 81.4209 152.824 80.7503 154.096ZM89.0039 151.942C88.7975 152.803 88.3702 153.61 87.7742 154.264C87.6064 154.449 87.6475 154.734 87.6816 154.981C87.8472 156.184 87.5733 157.442 86.9227 158.468C87.9889 158.215 89.079 158.064 90.1736 158.018C91.6741 157.954 93.2396 158.074 94.6148 157.471C93.8801 157.151 93.2565 156.582 92.8706 155.88C92.6437 155.467 92.3298 155.11 92.0186 154.756L89.6272 152.039C89.4544 151.842 89.0649 151.687 89.0039 151.942ZM61.8468 151.89C62.1897 152.961 63.4794 153.328 64.5968 153.521L72.0535 154.766C73.7777 155.054 75.5474 155.341 77.2621 155.001C77.5856 154.937 77.7567 155.451 77.5433 155.702C77.3298 155.954 76.9584 155.984 76.6286 155.985C75.1347 155.99 73.6496 155.791 72.1711 155.569L70.5963 155.329C67.8091 154.9 65.0232 154.444 62.2951 153.734C61.8281 153.613 61.3443 153.474 60.9869 153.15C60.6294 152.826 60.4435 152.26 60.695 151.848C60.9466 151.436 61.6996 151.431 61.8468 151.89ZM102.152 37.3632C107.555 37.8108 112.037 42.6611 112.763 48.0332C113.329 52.219 111.18 57.2048 107.025 57.963C108.493 63.2109 109.31 68.7326 108.504 74.1222C107.698 79.5119 105.133 84.7767 100.804 88.0876C99.6093 89.695 100.512 92.1199 102.085 93.3597C103.659 94.5995 105.695 95.0353 107.577 95.7195C115.465 98.5864 121.019 106.369 122.314 114.661C123.608 122.954 121.023 131.554 116.35 138.526C113.149 143.301 108.795 147.542 103.347 149.378C95.7777 151.93 87.4854 149.496 80.1162 146.381L79.8931 146.286C77.1218 145.107 74.3007 143.77 72.3088 141.52L72.1828 141.375C70.041 138.867 65.9931 140.222 63.0739 141.755L68.8969 144.171C69.314 144.344 69.7665 144.55 69.9599 144.958C70.3671 145.817 69.3641 146.643 68.5151 147.071L65.0961 148.792C59.705 151.498 54.0926 154.157 48.0795 154.324C41.3072 154.512 34.9058 151.522 28.8038 148.563L28.4166 148.375C27.7845 148.062 27.1455 147.7 26.8039 147.091C26.4312 146.427 26.6395 145.39 27.3761 145.195C34.294 143.366 40.8436 140.155 46.5267 135.807C46.092 133.1 46.1944 130.308 46.8264 127.64L46.8586 127.511C46.9496 127.163 47.0875 126.81 47.3931 126.634C48.2384 126.149 48.9727 127.428 49.1221 128.391L50.2531 135.686C54.7802 135.186 59.1739 133.523 62.898 130.901L53.9499 123.694C52.3478 122.398 50.7257 120.996 49.9852 119.083C49.2087 117.076 49.8334 114.356 51.8403 113.579C51.9986 105.977 51.5979 98.3635 50.6424 90.8201C49.3213 98.3541 50.3831 106.078 51.4463 113.653C49.6232 107.342 48.8337 100.734 49.1179 94.1714L49.1348 93.8069C49.1935 92.6177 49.3266 91.334 50.127 90.4526C51.5398 88.8968 54.314 89.5677 55.6036 91.2271C56.8932 92.8865 57.109 95.1134 57.2758 97.2083L72.3441 95.3677C74.0351 95.1652 75.7715 95.0081 77.3925 95.5094C79.5618 96.1801 81.3041 98.0801 81.7849 100.299L82.1383 100.203C84.1089 99.6576 86.18 98.9476 87.2839 97.2502C88.4416 95.47 87.4837 92.3878 85.3866 92.4123L85.3186 92.4141C78.6109 92.7044 72.0509 87.727 70.5243 81.1889C70.136 79.5261 69.9851 77.6783 68.8178 76.432C66.968 74.4572 65.5586 71.9113 65.5676 69.2055C65.5766 66.4997 67.3019 63.7093 69.9293 63.0624C72.5567 62.4156 75.6662 64.6077 75.4395 67.304C76.7142 67.1742 78.0181 67.3401 79.2196 67.785C78.5344 65.9375 80.3106 63.8983 82.2627 63.6302C84.2148 63.362 86.117 64.3371 87.7403 65.4539C89.3637 66.5707 90.9149 67.8855 92.8023 68.4516L92.8892 68.2503C93.2793 67.3396 93.6386 66.3669 93.442 65.4041C93.2308 64.3701 92.0658 63.4758 91.1226 63.9493C90.4604 62.0521 89.4068 60.2925 88.0471 58.8131L84.2681 60.5948C83.7812 59.8656 83.4829 59.0116 83.41 58.1378C80.9149 59.5637 78.2066 60.6161 75.4033 61.249L75.6902 59.1087L67.3129 63.4599C66.076 57.694 69.3129 51.5077 74.3487 48.4392C79.3845 45.3706 85.8259 45.1604 91.4344 46.9827C91.2556 41.5647 96.7501 36.9156 102.152 37.3632ZM143.365 131.34C138.539 132.505 133.854 134.253 129.445 136.536L129.126 136.702C126.683 137.989 124.285 139.531 122.754 141.82C123.788 141.641 124.892 141.91 125.727 142.546C126.255 142.947 126.695 143.549 126.664 144.211C126.648 144.555 126.505 144.882 126.313 145.167C125.562 146.28 123.971 146.732 122.747 146.18C121.523 145.629 120.808 144.138 121.144 142.838C115.95 144.611 111.485 148.426 108.918 153.276L108.833 153.44C108.706 153.684 108.552 153.957 108.283 154.018C107.915 154.101 107.586 153.69 107.603 153.312C107.62 152.934 107.862 152.609 108.096 152.312C111.123 148.469 114.66 144.811 119.186 142.956L119.527 142.819C120.595 142.395 121.713 141.979 122.402 141.076C124.075 138.885 126.482 137.381 128.927 136.108C131.115 134.969 133.379 133.974 135.698 133.133C138.025 132.289 140.405 131.6 142.789 130.933L150.868 128.684C148.683 130.219 145.961 130.714 143.365 131.34ZM40.5231 141.203C36.1318 142.668 31.8201 144.371 27.6135 146.303C27.3667 146.416 27.3384 146.782 27.4895 147.008C27.6405 147.234 27.9041 147.352 28.1537 147.459L35.8381 150.747C37.0036 151.246 38.1728 151.746 39.3917 152.095C42.7909 153.068 46.4537 152.831 49.8334 153.869C50.2433 153.995 50.6833 153.865 51.0915 153.733C54.0392 152.784 56.9522 151.727 59.8228 150.565C62.826 149.349 65.8021 148.008 68.4686 146.168C68.7111 146 68.9629 145.814 69.0736 145.541C69.1843 145.268 69.0823 144.888 68.7988 144.808C66.9993 144.296 65.2258 143.694 63.4876 143.002L63.367 142.953C62.8416 142.733 62.2913 142.421 62.1812 141.873C60.6499 141.935 59.3109 142.901 58.1814 143.936C57.0519 144.972 55.9909 146.142 54.5991 146.784C53.2074 147.425 51.3394 147.37 50.3753 146.178L50.313 146.101C50.2288 145.997 50.1373 145.897 50.0106 145.863C49.8522 145.822 49.6489 145.98 49.7227 146.126C49.9138 146.504 49.5033 146.983 49.0801 146.957C48.657 146.93 48.3261 146.545 48.222 146.134C48.155 145.87 48.1609 145.596 48.1929 145.324L48.201 145.257C48.0128 145.923 47.4231 146.476 46.7331 146.579C45.9137 146.701 45.0444 146.176 44.7722 145.393C44.5479 144.748 43.6685 144.737 42.9965 144.616C41.4685 144.342 40.3082 142.741 40.5231 141.203ZM50.9007 115.541C49.9955 117.151 50.8363 119.189 51.9512 120.661C55.4475 125.28 61.3035 127.496 65.2991 131.689C66.3031 132.743 67.1782 133.91 68.0421 135.082L70.7575 138.77C71.2565 139.448 71.7574 140.128 72.3398 140.736C73.8583 142.32 75.8577 143.343 77.8354 144.294C81.848 146.225 85.976 147.999 90.3327 148.921C94.6893 149.843 99.3183 149.874 103.51 148.371C107.433 146.964 110.814 144.266 113.441 141.03C116.005 137.871 117.887 134.209 119.395 130.429L119.505 130.152C119.722 129.601 119.935 129.024 119.89 128.433C119.842 127.808 119.509 127.24 119.121 126.749C117.639 124.874 115.164 123.814 112.793 124.107C110.459 124.396 108.322 126.015 107.467 128.204L107.427 128.308C105.569 133.345 100.942 137.133 95.7451 138.477C90.5478 139.821 84.8947 138.858 80.1507 136.345C75.4067 133.832 71.5357 129.855 68.6495 125.328L68.4919 125.078C67.9705 124.241 67.4965 123.361 67.3129 122.395C67.111 121.333 67.3163 120.139 68.0833 119.377C68.5899 118.874 69.311 118.578 69.6795 117.967C70.048 117.355 69.6152 116.275 68.9354 116.493L68.4818 116.637C65.3572 117.609 61.732 118.363 59.2181 116.34L58.9766 116.147C57.8037 115.215 56.5503 114.325 55.0931 114.005C53.5355 113.662 51.6823 114.151 50.9007 115.541ZM63.3564 131.863C59.5663 134.258 55.2891 135.878 50.8636 136.595C50.2794 136.689 50.1223 137.447 50.1131 138.038C50.0839 139.919 50.175 141.802 50.3857 143.672C50.865 143.446 51.0611 142.882 51.3879 142.465C51.7147 142.048 52.4606 141.82 52.7132 142.285C52.8896 142.611 52.6541 143.018 52.3534 143.234C52.0527 143.45 51.6828 143.566 51.4146 143.821C50.7474 144.456 51.0962 145.704 51.9091 146.136C52.722 146.569 53.7502 146.343 54.5295 145.853C55.3089 145.362 55.911 144.643 56.5718 144.002C57.9851 142.631 59.7138 141.587 61.5853 140.974C63.9611 140.195 66.6066 140.08 68.6967 138.708C68.8375 138.616 68.9832 138.507 69.0364 138.347C69.1089 138.129 68.9862 137.903 68.8559 137.708L66.3551 134.077C65.9568 133.499 65.4984 132.878 64.8158 132.712C64.5038 132.636 64.171 132.666 63.8648 132.569C63.5585 132.472 63.27 132.172 63.3564 131.863ZM45.8967 137.138C44.9217 137.593 44.3447 138.663 44.2163 139.732C44.0879 140.8 44.34 141.876 44.6395 142.909C44.8234 143.544 45.0273 144.176 45.3314 144.763C45.5253 145.137 45.782 145.509 46.1705 145.672C46.5591 145.835 47.0983 145.688 47.2246 145.287C47.2766 145.121 47.2533 144.942 47.2232 144.771C47.11 144.129 46.907 143.503 46.6221 142.916L46.5025 142.679C46.3311 142.336 46.1696 141.931 46.39 141.632C46.6005 141.346 47.1176 141.228 47.0682 140.877L46.5853 137.444C46.5712 137.344 46.5546 137.238 46.4895 137.16C46.3523 136.997 46.0899 137.048 45.8967 137.138ZM123.199 142.432C122.877 142.431 122.539 142.475 122.28 142.667C122.129 142.779 122.015 142.936 121.934 143.107C121.594 143.827 121.908 144.753 122.552 145.222C123.195 145.691 124.087 145.735 124.833 145.454C125.403 145.239 125.951 144.753 125.932 144.144C125.917 143.663 125.552 143.262 125.15 142.999C124.576 142.623 123.886 142.435 123.199 142.432ZM47.7262 127.411C47.6438 127.472 47.603 127.573 47.5682 127.67C47.0612 129.076 46.9991 130.601 47.0131 132.097C47.0482 135.846 47.5298 139.59 48.4447 143.226L48.4901 143.403C48.6771 144.113 48.9328 144.841 49.5119 145.281C49.6196 139.519 49.2457 133.748 48.3955 128.048C48.3403 127.678 48.0264 127.188 47.7262 127.411ZM43.1603 139.795C43.0392 139.829 42.9615 139.945 42.9011 140.055C42.4067 140.957 42.3733 142.097 42.8141 143.027C43.0117 143.443 43.3506 143.849 43.809 143.9C43.9959 143.667 43.9105 143.332 43.8058 143.047L43.7153 142.805C43.3789 141.893 43.1027 140.906 43.3993 139.989C43.438 139.87 43.2813 139.761 43.1603 139.795ZM41.5109 141.045C41.1641 141.816 41.3186 142.786 41.8876 143.411C42.1225 143.171 42.0192 142.778 41.939 142.451C41.8135 141.941 41.7851 141.407 41.8559 140.886C41.7684 140.757 41.5746 140.904 41.5109 141.045ZM48.8191 113.571C49.3447 114.024 49.6789 115.001 49.0547 115.303C48.6548 115.497 48.2016 115.214 47.824 114.979C45.8618 113.762 43.3528 113.672 41.1282 114.291C38.9035 114.911 36.9147 116.172 35.048 117.532C33.1892 118.886 31.3968 120.371 29.9991 122.198C28.6014 124.024 27.6127 126.224 27.5316 128.522C27.4344 131.276 28.6241 133.909 29.9999 136.297C30.8767 137.818 31.8655 139.319 33.2266 140.424L33.5065 140.645C33.8926 140.955 34.289 141.339 34.1906 141.805C32.8564 141.745 31.8881 140.552 31.1533 139.436C30.1085 137.85 29.1562 136.204 28.3027 134.507C27.593 133.097 26.9443 131.627 26.7287 130.062C26.3232 127.12 27.5176 124.129 29.3742 121.811C31.2307 119.493 33.7015 117.753 36.2005 116.149C38.0987 114.93 40.0523 113.761 42.1831 113.02C44.3806 112.257 47.0564 112.053 48.8191 113.571ZM105.214 100.613C102.054 103.563 97.8534 105.374 93.5395 105.649C91.6329 105.77 89.6642 105.588 87.939 104.767C86.2139 103.946 84.7607 102.416 84.3598 100.548L84.2166 100.592C82.9679 100.987 81.5383 101.702 81.5509 102.989C81.6042 108.447 81.4772 113.906 81.1701 119.355C81.1112 120.401 80.713 121.773 79.6662 121.743C75.9469 121.633 72.2032 122.492 68.9035 124.212C72.6176 130.036 77.8996 135.129 84.4699 137.262C91.0403 139.396 98.9645 138.062 103.569 132.912C105.045 131.262 106.131 129.31 107.177 127.355L107.418 126.904C107.64 126.487 107.866 125.991 107.669 125.562C107.542 125.288 107.815 125.003 108.065 124.834C111.739 122.347 117.209 123.022 120.169 126.327C119.934 125.868 120.147 125.236 120.612 125.013C120.981 125.606 121.059 126.371 120.817 127.027C120.977 127.253 121.271 126.889 121.296 126.613C121.691 122.317 121.66 117.982 121.204 113.692C121.039 112.145 120.816 110.589 120.263 109.135C119.777 107.86 119.048 106.692 118.249 105.586C116.41 103.043 114.174 100.787 111.648 98.9248L111.464 98.7912C111.064 98.5045 110.642 98.2402 110.169 98.1113C108.295 97.6013 106.633 99.2881 105.214 100.613ZM79.6868 98.1417C77.5978 98.8447 75.3359 98.7095 73.1371 98.8614C70.0385 99.0756 66.9819 99.8813 64.1804 101.223C62.9739 101.8 61.8066 102.479 60.5307 102.881C57.8207 103.734 54.7142 103.207 52.4373 101.508C51.9465 105.255 52.0912 109.085 52.8636 112.785C52.9132 113.022 53.0697 113.326 53.3018 113.255C54.8417 112.782 56.498 113.451 57.8672 114.3C59.2364 115.149 60.5232 116.207 62.0784 116.627C63.9028 117.12 65.8362 116.664 67.642 116.092L67.7772 116.049C68.7029 115.751 69.9001 115.504 70.4937 116.274C70.9943 116.923 70.6782 117.893 70.1481 118.519C69.6181 119.144 68.8993 119.609 68.4669 120.306C67.9359 121.162 67.9332 122.317 68.46 123.175C71.9088 121.792 75.6001 121.016 79.3139 120.893C80.0587 120.869 80.3199 119.905 80.3657 119.161C80.7667 112.644 80.8899 106.11 80.7346 99.5817C80.7181 98.8859 80.3464 97.9197 79.6868 98.1417ZM135.524 115.765L135.671 115.839C136.586 116.304 137.559 116.923 137.695 117.925C137.74 118.255 137.684 118.59 137.605 118.913C137.497 119.361 137.332 119.821 136.983 120.123C136.614 120.443 136.096 120.534 135.608 120.515C134.646 120.477 133.684 120.029 133.127 119.245C132.57 118.46 132.481 117.338 133 116.528C133.52 115.719 134.662 115.338 135.524 115.765ZM134.098 116.886C133.528 117.123 133.323 117.894 133.561 118.464C133.798 119.034 134.363 119.409 134.95 119.601C135.55 119.797 136.323 119.781 136.681 119.261C136.8 119.087 136.856 118.879 136.889 118.671C136.961 118.219 136.917 117.719 136.626 117.365C136.265 116.928 135.65 116.84 135.075 116.808L134.932 116.801C134.65 116.788 134.358 116.777 134.098 116.886ZM62.1625 105.106C62.2346 105.379 62.1792 105.668 62.13 105.947C61.7831 107.909 61.758 109.927 62.0553 111.897L62.1102 112.246C62.1464 112.492 62.1612 112.753 62.0196 112.951C61.8561 113.18 61.398 113.157 61.375 112.877C61.1799 110.49 61.0549 108.097 61.0002 105.703C60.9897 105.245 61.1091 104.637 61.5652 104.602C61.8472 104.58 62.0905 104.832 62.1625 105.106ZM46.1114 100.323C46.4487 100.424 46.7727 100.655 46.8705 100.993C46.9683 101.332 46.7458 101.76 46.3942 101.782C46.0666 101.802 45.8165 101.504 45.5155 101.373C44.975 101.138 44.3686 101.466 43.8718 101.783L43.6188 101.947C43.1418 102.261 42.6797 102.613 42.4178 103.114C42.1498 103.627 42.1274 104.229 42.1357 104.807C42.1414 105.209 42.1602 105.617 42.2845 105.999C42.5541 106.828 43.3235 107.45 44.1769 107.63C45.0302 107.809 45.943 107.576 46.6649 107.087L46.8062 106.991C46.9336 106.907 47.0673 106.834 47.2172 106.827C47.4234 106.817 47.6491 107.011 47.579 107.205C47.558 107.263 47.5148 107.311 47.4717 107.355C46.2917 108.567 44.2541 108.827 42.808 107.949C42.5501 107.792 42.3096 107.603 42.1146 107.373C41.5286 106.681 41.4193 105.71 41.4032 104.803C41.3945 104.313 41.4066 103.814 41.5461 103.344C41.8475 102.327 42.6992 101.572 43.5845 100.988C44.3361 100.492 45.2491 100.063 46.1114 100.323ZM39.2846 98.2363L42.2263 101.73C42.0645 101.905 41.7808 101.916 41.5622 101.821C41.3678 101.737 41.2128 101.586 41.0668 101.43L39.3408 99.5741C39.1055 101.458 38.5354 103.3 37.6652 104.988C37.5805 105.152 37.8205 105.291 38.0043 105.309C38.4533 105.356 38.9072 105.304 39.3499 105.217L39.5781 105.17C39.9356 105.099 40.3022 105.044 40.6354 105.176C41.0401 105.336 41.2898 105.925 40.9653 106.215C40.7653 106.394 40.4622 106.372 40.196 106.339L37.331 105.984L37.243 105.972C36.9601 105.925 36.6493 105.815 36.6078 105.542C36.5828 105.378 36.6741 105.221 36.7595 105.078C37.7793 103.376 38.4586 101.472 38.747 99.5087L38.7905 99.1974C38.8465 98.8153 38.9458 98.4008 39.2846 98.2363ZM139.509 103.725C139.864 103.976 140.199 104.469 139.924 104.806C139.752 105.017 139.42 105.022 139.173 104.909C138.925 104.795 138.733 104.592 138.519 104.423C137.644 103.731 136.329 103.658 135.383 104.249C135.248 104.333 135.114 104.438 135.059 104.587C135.005 104.736 135.065 104.937 135.217 104.982C136.426 104.47 137.866 104.541 139.018 105.17C139.184 105.261 139.359 105.382 139.4 105.568C139.441 105.753 139.242 105.975 139.076 105.882C138.325 105.462 137.428 105.307 136.579 105.451C136.183 105.519 135.796 105.649 135.395 105.661C134.994 105.674 134.555 105.54 134.342 105.2C134.145 104.886 134.192 104.462 134.384 104.145C134.575 103.828 134.89 103.604 135.218 103.433C136.556 102.737 138.278 102.854 139.509 103.725ZM99.4302 86.7412C96.5617 89.1524 93.191 90.9631 89.5975 92.0248L89.3576 92.0945C88.891 92.2276 88.3039 92.5231 88.402 92.9982L88.4625 93.2931C88.6417 94.1796 88.7937 95.0824 88.6659 95.9745C88.528 96.9365 87.9977 97.8994 87.12 98.3037L87.0392 98.3389C85.4765 98.9822 85.2569 101.317 86.2817 102.66C87.3065 104.004 89.0837 104.525 90.7625 104.719C95.6896 105.289 100.831 103.637 104.504 100.304C105.837 99.0947 107.029 97.6476 108.678 96.9294L104.553 95.4196C103.441 95.0122 102.313 94.5974 101.345 93.9148C100.376 93.2322 99.5686 92.2384 99.3706 91.0701C99.128 89.6391 99.8141 88.141 99.4302 86.7412ZM51.8489 90.6103C51.7454 90.6563 51.6397 90.7174 51.5899 90.8192C51.5401 90.9211 51.5569 91.0414 51.5745 91.1535L52.5196 97.1108C52.7981 98.8663 53.1893 100.812 54.6372 101.843C56.2233 102.972 58.4013 102.53 60.2482 101.885L60.3469 101.85C63.7848 100.629 67.0935 98.9294 70.6968 98.3575C73.2838 97.947 75.9967 98.1227 78.443 97.1862C77.5483 95.8356 75.6097 95.8428 73.9881 96.0199L60.7401 97.5255C59.7137 97.6422 58.6357 97.7783 57.8022 98.3884C57.4375 98.6554 57.0922 99.0222 56.6406 99.0408C56.2012 99.059 55.8193 98.4191 56.1637 98.1837L56.1941 98.1651C56.5717 97.9573 56.5463 97.4151 56.469 96.9911L56.0683 94.7941C55.8657 93.7043 55.6183 92.5953 54.9663 91.7056C54.2622 90.7448 52.9376 90.1265 51.8489 90.6103ZM143.309 99.5143C143.628 99.8863 143.642 100.457 143.429 100.899C143.216 101.34 142.813 101.665 142.377 101.889C141.85 102.159 141.271 102.3 140.69 102.42L140.4 102.479C140.286 102.502 140.166 102.524 140.056 102.488C139.964 102.457 139.89 102.389 139.83 102.313C139.531 101.937 139.541 101.383 139.744 100.948C139.946 100.512 140.309 100.173 140.682 99.8701C141.063 99.5603 141.477 99.2684 141.955 99.155C142.433 99.0417 142.989 99.1417 143.309 99.5143ZM141.742 100.168L141.589 100.271C141.361 100.427 141.14 100.599 140.987 100.827C140.799 101.106 140.734 101.496 140.919 101.776L142.148 101.093C142.348 100.981 142.555 100.863 142.685 100.675C142.815 100.486 142.841 100.205 142.68 100.041C142.439 99.7961 142.029 99.9777 141.742 100.168ZM122.141 86.7196C122.226 86.7543 122.284 86.832 122.334 86.9113L124.135 89.8517C124.456 90.3773 125.188 90.4358 125.803 90.3925C126.981 90.3096 128.148 90.0691 129.262 89.6797C129.449 89.6143 129.627 89.8523 129.586 90.0462C129.546 90.2402 129.379 90.3782 129.223 90.5L126.519 92.6076C126.187 92.5841 126.281 92.0406 126.551 91.8449L126.63 91.7894C126.89 91.6142 127.205 91.4413 127.188 91.1406L125.626 91.6287C125.327 91.722 124.996 91.8136 124.712 91.6826C124.523 91.5955 124.391 91.4246 124.272 91.2526L122.287 88.355L122.252 90.8924C122.25 91.1005 122.241 91.3262 122.109 91.4869C122.015 91.6011 121.874 91.6624 121.735 91.7141L118.995 92.6969C119.727 93.4284 121.096 92.6588 121.971 93.21C122.571 93.5876 122.674 94.4291 122.544 95.1259C122.415 95.8227 122.118 96.5007 122.157 97.2084C122.657 96.8457 123.024 96.3041 123.175 95.7055C123.237 95.4643 123.267 95.2075 123.401 94.9979C123.771 94.4201 124.655 94.5377 125.267 94.8467C125.88 95.1557 126.516 95.6006 127.186 95.4537L126.214 93.899C126.125 93.7571 126.033 93.6035 126.041 93.4364C126.049 93.2693 126.207 93.1003 126.367 93.1489C126.438 93.1701 126.49 93.2257 126.536 93.2838L128.705 96.0957C127.944 96.598 126.938 96.2816 126.059 96.0392L125.928 96.005C125.07 95.7926 124.023 95.7716 123.549 96.4988C123.215 97.0114 122.823 97.4862 122.383 97.9112C122.197 98.0902 121.986 98.2687 121.73 98.298C121.474 98.3272 121.18 98.1331 121.202 97.8763L121.454 95.0329C121.471 94.8488 121.483 94.6484 121.381 94.4947C121.273 94.3328 121.069 94.2698 120.881 94.218L118.511 93.5635C117.996 93.4212 117.992 92.6192 118.379 92.2499C118.765 91.8807 119.335 91.8033 119.85 91.6604C120.365 91.5176 120.922 91.2143 121.015 90.688L121.616 87.2813C121.668 86.99 121.866 86.6086 122.141 86.7196ZM58.3803 38.6901L57.9426 39.0458C55.0265 41.4222 52.1529 43.9135 50.0142 47.0026C47.7686 50.2462 46.39 54.2684 47.0585 58.1564C48.0328 63.8223 53.1007 68.3345 53.3174 74.0794C53.3462 74.8425 54.1233 75.3175 54.7734 75.7181C57.3392 77.2993 59.2405 79.8089 60.4951 82.5493C61.7105 85.204 62.3594 88.0805 62.8312 90.9634L62.8764 91.2424C62.9466 91.682 62.998 92.1824 62.7144 92.5255C62.4308 92.8687 61.7016 92.7485 61.7299 92.3043C62.0627 87.0808 60.1643 81.752 56.604 77.9155C55.6791 76.9188 54.6047 75.995 53.3023 75.6047C53.2193 77.6167 52.5419 79.6669 51.1079 81.0806C49.6739 82.4943 47.4117 83.1401 45.5553 82.36C43.6989 81.5799 42.5632 79.2244 43.3986 77.3923C44.0985 75.8575 45.8367 75.0821 47.4916 74.7554C49.1154 74.4347 50.7987 74.418 52.4285 74.7063C52.6478 74.7451 52.7434 74.4386 52.739 74.2159C52.6211 68.2445 47.1013 63.5693 46.3768 57.6408C45.9808 54.4008 47.0862 51.1394 48.6905 48.2968C50.7973 44.5638 53.7944 41.3372 57.3621 38.9612L57.4555 38.9006C57.7413 38.7207 58.0744 38.5673 58.3803 38.6901ZM76.5547 69.104C75.756 69.6178 75.7765 70.758 75.7104 71.7054C75.6198 73.005 75.1729 74.3057 74.3015 75.2741C73.4301 76.2424 72.1062 76.8373 70.8136 76.6747C70.4792 76.6327 70.3776 77.1165 70.4215 77.4507C71.1729 83.178 74.6471 88.8009 80.0472 90.8516C83.3485 92.1054 87.0775 91.9388 90.4433 90.8702C93.729 89.827 96.7028 87.9717 99.4207 85.8479L99.6191 85.692C100.013 85.3808 100.409 85.0564 100.683 84.6355C100.961 84.2086 101.098 83.7036 101.164 83.1987C101.521 80.4934 99.7131 77.6627 97.1088 76.8485C96.8023 76.7527 96.8732 76.2554 97.1421 76.0799C97.4111 75.9044 97.7574 75.9163 98.0645 75.8225C98.8965 75.5683 99.2792 74.6207 99.4691 73.7717C99.7301 72.6052 99.8033 71.2749 99.0804 70.3229C98.1034 69.0364 96.2037 69.038 94.593 69.1613L91.9794 69.3614C91.0773 69.4305 89.9162 69.7484 89.8739 70.6521C89.7827 72.5984 88.9253 74.5373 87.4105 75.7628C85.8957 76.9884 83.7143 77.4121 81.916 76.6619C80.1462 75.9236 78.896 73.9971 79.1004 72.095L79.1115 72.003C79.218 71.1984 79.1593 70.3247 78.6879 69.6639C78.2166 69.0032 77.2373 68.665 76.5547 69.104ZM98.1418 38.6889C96.9763 39.0202 95.8569 39.5546 94.9368 40.343C93.651 41.4447 92.7962 43.0368 92.5882 44.7173C92.5145 45.3127 92.6329 46.0806 93.2112 46.2406C94.6238 46.6313 95.8877 47.5375 96.7113 48.7499C95.3758 47.9552 93.9118 47.3769 92.3938 47.0445L98.8103 50.6753C99.1822 50.8858 99.5684 51.1093 99.8023 51.4669C100.036 51.8246 100.061 52.3584 99.7393 52.6401L99.2908 52.291C98.1666 51.421 97.0174 50.5776 95.7592 49.9191C94.8025 49.4185 93.7927 49.03 92.7774 48.66L92.2234 48.4594C90.3439 47.7813 88.4473 47.0989 86.4678 46.828C84.6304 46.5766 82.744 46.6882 80.9491 47.1546L80.5951 47.2454C78.1704 47.8589 75.6422 48.3606 73.6375 49.8431C72.4451 50.725 71.5113 51.9055 70.6246 53.0944L70.4154 53.3782C68.6538 55.7969 67.044 58.7789 68.0748 61.554C72.8069 60.9711 76.4935 57.3097 80.7803 55.2226C81.1079 55.0631 81.6483 55.0143 81.6981 55.3753L76.9012 58.2099C77.0344 58.9419 76.9085 59.7183 76.551 60.3708C80.0556 59.3805 83.3322 57.5923 86.0622 55.1819L86.2357 55.0272C86.6687 54.6373 87.5031 54.3148 87.6876 54.8675L87.4529 54.9985C86.5921 55.4828 85.7357 56.0124 85.1423 56.7965C84.4949 57.6519 84.2372 58.8955 84.811 59.8018L90.8666 56.2363C91.1125 56.0915 91.3808 55.9414 91.6647 55.9713C91.9486 56.0011 92.2148 56.3068 92.0922 56.5646L91.8862 56.6075C91.2326 56.7464 90.5698 56.9204 90.0608 57.3462C89.4983 57.8167 89.207 58.699 89.625 59.3016C90.3748 60.3825 90.9832 61.5614 91.43 62.7988C91.4397 62.2577 92.1772 61.981 92.6634 62.2185C93.1496 62.4561 93.4068 62.9923 93.583 63.504C94.087 64.9677 94.2202 66.5574 93.9667 68.0846C95.4895 68.6223 97.2755 67.9872 98.7402 68.6673C100.1 69.2986 100.765 70.9361 100.67 72.4321C100.576 73.9281 99.869 75.3113 99.1142 76.6064C101.224 78.2409 102.351 81.0564 101.952 83.6952C102.32 83.6353 102.63 83.3178 102.683 82.9487L103.519 83.4767C102.211 84.2164 101.28 85.5892 101.076 87.0787C106.826 81.6981 108.735 73.1702 107.906 65.3391L107.873 65.0471C107.544 62.2192 106.762 59.2715 104.635 57.3984C105.776 56.741 107.238 56.9995 108.458 56.5059C109.611 56.0395 110.403 54.9584 110.938 53.8359C112.727 50.0833 112.111 45.3086 109.428 42.1329C106.745 38.9572 102.141 37.5521 98.1418 38.6889ZM79.3447 85.7519C79.5261 85.7819 79.7318 85.8432 79.8029 86.0127C79.9163 86.2835 79.5985 86.531 79.3234 86.6334C78.924 86.7822 78.5047 86.8775 78.0802 86.9159C77.7241 86.9481 77.2748 86.8793 77.1646 86.5391C77.0922 86.3154 77.218 86.0641 77.4084 85.9261C77.5988 85.7882 77.8396 85.7416 78.0733 85.7163C78.4961 85.6705 78.9251 85.6825 79.3447 85.7519ZM72.8402 81.8712C74.0916 83.3418 76.0491 84.1205 77.98 84.1358C79.9109 84.151 81.8053 83.4529 83.4084 82.3764L83.5432 82.2858C83.7468 82.1505 83.958 82.0234 84.1968 81.9819C84.4887 81.9311 84.8357 82.0536 84.9349 82.3328C83.2582 83.7568 81.1565 84.6972 78.9656 84.896C76.7748 85.0949 74.5056 84.5328 72.718 83.2507C72.3955 83.0194 72.0621 82.7151 72.0488 82.3184C72.0355 81.9218 72.583 81.569 72.8402 81.8712ZM46.6114 75.6421C45.7413 75.9197 44.8656 76.3265 44.3166 77.0564C43.5011 78.1408 43.6437 79.786 44.5245 80.818C45.4052 81.85 46.8946 82.2621 48.2233 81.9878C49.552 81.7135 50.7056 80.817 51.4523 79.6842C52.1989 78.5514 52.5645 77.199 52.6753 75.8468C52.6938 75.6202 52.6527 75.3201 52.4291 75.2785C50.4994 74.9194 48.4813 75.0456 46.6114 75.6421ZM77.4446 70.3584C77.4809 70.6703 77.3603 70.9763 77.2494 71.2701C76.6227 72.9299 76.2413 74.682 76.1213 76.4521C76.1018 76.7389 76.0907 77.0362 76.1959 77.3037C76.2952 77.5563 76.5256 77.776 76.7929 77.7911L76.8404 77.7916C77.0837 77.783 77.1991 78.1456 77.0461 78.3349C76.8931 78.5242 76.6059 78.5454 76.3726 78.476C75.8936 78.3334 75.5502 77.8875 75.4112 77.4074C75.2722 76.9273 75.3078 76.4147 75.3774 75.9198C75.6134 74.2418 76.226 72.6148 76.256 70.9206C76.2645 70.4424 76.3622 69.798 76.8389 69.7599C77.1519 69.7349 77.4083 70.0466 77.4446 70.3584ZM83.3991 64.6952C82.4039 64.9 81.6442 65.7163 81.1281 66.5914C80.0709 68.3843 79.7696 70.6073 80.3116 72.6168C80.555 73.5192 80.971 74.3912 81.6238 75.0601C82.2765 75.729 83.1833 76.1779 84.1177 76.1624C84.7699 76.1516 85.403 75.9201 85.9696 75.5969C87.8616 74.5174 89.0636 72.3297 88.9602 70.1539C88.8568 67.978 87.4528 65.9142 85.4669 65.019C84.8202 64.7274 84.0939 64.5523 83.3991 64.6952ZM69.6648 63.8032C67.8868 64.4619 66.739 66.3084 66.4943 68.1886C66.2497 70.0689 66.7771 71.971 67.5289 73.7117C67.7313 74.1805 67.9615 74.6571 68.3502 74.9883C68.7389 75.3194 69.3275 75.4679 69.7692 75.2116C69.9748 75.0923 70.1669 75.3713 70.3229 75.5506C70.6337 75.9079 71.1806 75.9384 71.645 75.8456C73.1751 75.5398 74.3509 74.2028 74.8269 72.7168C75.287 71.2804 75.1888 69.7256 74.9169 68.2392L74.8882 68.0857C74.6015 66.5867 73.9537 64.902 72.4942 64.4556C71.729 64.2216 70.8059 64.3583 70.2144 63.8194C70.0716 63.6893 69.846 63.736 69.6648 63.8032ZM97.9207 70.1591C98.5221 70.8254 98.2759 71.8603 97.9751 72.7153L97.9506 72.7842C97.8303 73.1196 97.7055 73.4628 97.4754 73.7347C97.2452 74.0066 96.8837 74.1965 96.535 74.1239C96.1862 74.0513 95.9144 73.6469 96.0609 73.3221C96.2428 72.9191 96.8608 72.8985 97.0839 72.5167L96.4812 72.4598C96.0753 72.4215 95.6383 72.37 95.3376 72.0947C95.0369 71.8193 94.9991 71.2367 95.3647 71.0563C95.6182 70.9312 95.9234 71.0537 96.1579 71.2114C96.3925 71.369 96.6169 71.5685 96.8962 71.6115C97.1756 71.6544 97.5152 71.435 97.4576 71.1583C97.3775 70.7732 97.5751 70.3469 97.9207 70.1591ZM84.1642 72.7605C84.2119 73.0254 84.2294 73.3065 84.1302 73.5567C84.0311 73.8069 83.7894 74.0163 83.5204 74.0051C83.1039 73.9878 82.8808 73.5081 82.8081 73.0976C82.7182 72.5904 82.8586 71.8924 83.3723 71.8547C83.8119 71.8223 84.0862 72.3266 84.1642 72.7605ZM71.3306 71.6839C71.5381 71.9862 71.5088 72.3902 71.4263 72.7476C71.3209 73.2048 71.0557 73.7149 70.5889 73.7626C70.1674 73.8057 69.8075 73.4286 69.6697 73.0279C69.5015 72.539 69.5832 71.9417 69.9649 71.5929C70.3466 71.2441 71.0381 71.2575 71.3306 71.6839ZM71.7192 66.5238C71.9055 66.6094 72.0368 66.8442 71.9425 67.0263L71.7623 67.0735C70.7365 67.3473 69.643 67.7282 69.1531 68.6556C69.0356 68.8779 68.9595 69.1232 68.8133 69.3277C68.6671 69.5321 68.4206 69.6947 68.1746 69.6429C67.8942 69.5839 67.7321 69.2612 67.762 68.9763C67.7919 68.6914 67.9653 68.4431 68.151 68.2249C68.906 67.3377 69.9701 66.7188 71.1146 66.5011C71.3161 66.4627 71.5328 66.4382 71.7192 66.5238ZM84.8291 67.036C85.1358 67.2832 85.3689 67.6126 85.6788 67.8557C85.9407 68.0611 86.2716 68.2235 86.3906 68.5343C86.5096 68.8451 86.1516 69.2841 85.8919 69.076C85.2138 68.5326 84.4611 68.0825 83.6616 67.7422C83.2991 67.5879 83.3814 66.978 83.7349 66.8044C84.0885 66.6307 84.5223 66.7889 84.8291 67.036ZM81.0299 65.0869C80.3616 65.3072 79.8866 66.0105 79.932 66.7128C80.1876 66.582 80.3823 66.3375 80.4527 66.0591L80.4427 66.031C80.7393 65.7966 80.9508 65.4566 81.0299 65.0869Z" fill="#282828"/>
<path fill-rule="evenodd" clip-rule="evenodd" d="M43.3697 149.253C43.6386 149.255 43.8859 149.38 44.1208 149.517L44.2477 149.592C45.6877 150.455 47.2071 151.184 48.7805 151.768C48.9967 151.848 48.9296 152.211 48.7188 152.305C48.5081 152.398 48.2648 152.315 48.0499 152.231L43.4034 150.423C43.106 150.308 42.7609 150.131 42.7348 149.813C42.7088 149.497 43.0519 149.25 43.3697 149.253Z" fill="#F0E8E6"/>
<path fill-rule="evenodd" clip-rule="evenodd" d="M35.9622 144.191L50.3364 149.29L50.4267 149.323C50.8066 149.472 51.2175 149.726 51.1769 150.118C51.1438 150.438 50.7901 150.644 50.4689 150.633C50.1971 150.624 49.9461 150.503 49.706 150.37L49.576 150.297C47.5718 149.16 45.469 148.223 43.3124 147.412C40.8694 146.495 38.3574 145.741 35.8414 145.046C35.4566 144.94 34.969 144.596 35.1896 144.264C35.3444 144.03 35.6984 144.097 35.9622 144.191Z" fill="#F0E8E6"/>
</svg>
