<svg width="201" height="200" viewBox="0 0 201 200" fill="none" xmlns="http://www.w3.org/2000/svg">
<path fill-rule="evenodd" clip-rule="evenodd" d="M19.6493 88.8124C24.5454 58.0553 115.661 19.3426 163.585 43.6586C211.509 67.9746 149.36 89.9813 153.932 140.586C157.104 175.693 103.4 178.048 60.7453 159.35C34.8969 148.019 16.0742 111.271 19.6493 88.8124Z" fill="#5E548E"/>
<g clip-path="url(#clip0_1304_50747)">
<path fill-rule="evenodd" clip-rule="evenodd" d="M147.834 23.7325C148.772 23.7241 149.389 24.1475 149.61 25.0326C149.721 25.4737 149.663 25.9587 149.666 26.424C149.674 27.6198 149.688 28.8159 149.673 30.0116C149.664 30.7564 149.604 31.5005 149.569 32.245C149.562 32.3867 149.561 32.5287 149.561 32.6705C149.56 34.2314 149.573 35.7924 149.558 37.3531C149.532 40.0905 149.491 42.8277 149.453 45.565C149.42 47.8377 149.382 50.1102 149.346 52.3829C149.31 54.6913 149.275 56.9996 149.239 59.308C149.203 61.5807 149.172 63.8534 149.13 66.1259C149.104 67.4694 149.051 68.8125 149.028 70.1561C149.011 71.0912 149.034 72.027 149.022 72.9622C148.993 75.2707 148.958 77.5791 148.915 79.8873C148.89 81.213 148.836 82.5382 148.813 83.8639C148.797 84.8169 148.823 85.7706 148.807 86.7236C148.784 88.0315 148.728 89.3387 148.706 90.6466C148.689 91.6532 148.716 92.6605 148.699 93.6671C148.678 94.8678 148.62 96.0678 148.599 97.2684C148.582 98.2393 148.606 99.2108 148.593 100.182C148.564 102.544 148.526 104.906 148.488 107.268C148.455 109.29 148.42 111.313 148.38 113.335C148.35 114.804 148.299 116.272 148.277 117.741C148.26 118.872 148.288 120.005 148.27 121.136C148.252 122.301 148.189 123.466 148.17 124.63C148.153 125.744 148.18 126.859 148.163 127.973C148.145 129.03 148.08 130.087 148.063 131.145C148.045 132.277 148.071 133.409 148.057 134.541C148.029 136.885 147.99 139.229 147.952 141.573C147.918 143.632 147.919 145.691 147.834 147.747C147.752 149.725 148.207 151.559 149.191 153.247C150.192 154.966 151.266 156.645 152.33 158.327C153.383 159.99 154.306 161.721 154.795 163.63C155.145 164.993 155.196 166.407 154.804 167.787C154.67 168.259 153.853 171.513 154.548 172.358C155.44 173.443 156.568 173.93 157.957 173.962C159.311 173.993 160.597 173.663 161.894 173.363C163.472 172.998 165.056 172.734 166.645 173.31C167.435 173.597 168.148 174.002 168.615 174.734C168.687 174.845 168.86 175.033 168.482 175.035C167.567 175.04 166.653 175.096 165.739 175.132C163.91 175.203 162.081 175.277 160.252 175.346C159.195 175.385 158.137 175.419 157.08 175.453C155.897 175.491 154.715 175.527 153.532 175.56C152.153 175.598 150.774 175.636 149.395 175.667C147.676 175.706 145.957 175.743 144.239 175.774C142.127 175.814 140.015 175.851 137.903 175.881C135.095 175.922 132.286 175.95 129.477 175.991C127.562 176.019 125.647 176.062 123.731 176.096C123.404 176.102 123.076 176.094 122.748 176.097C118.795 176.132 114.843 176.169 110.891 176.204C110.545 176.207 110.199 176.202 109.854 176.205C105.812 176.24 101.77 176.276 97.728 176.311C97.3645 176.314 97.0009 176.309 96.6374 176.312C92.6313 176.347 88.6252 176.383 84.6191 176.418C84.2735 176.421 83.9278 176.416 83.5821 176.419C79.5403 176.454 75.4985 176.49 71.4566 176.525C71.1289 176.527 39.3344 176.523 39.0066 176.527C38.488 176.531 36.2743 172.547 39.2945 163.63C39.9652 161.65 42.3224 158.028 46.3662 152.764C45.8156 68.3319 45.8156 26.1062 46.3662 26.0868C47.2629 26.0551 48.1593 26.014 49.056 25.9808C51.0279 25.9079 71.6665 25.8397 73.6383 25.7648C74.3922 25.7361 75.1453 25.6859 75.8993 25.6606C77.171 25.6179 78.4431 25.5908 79.7149 25.5503C80.6474 25.5206 81.5795 25.4773 82.5119 25.4449C83.6229 25.4063 84.7341 25.3758 85.845 25.336C86.7061 25.3052 87.5665 25.2579 88.4277 25.2315C89.8066 25.1893 91.1859 25.1613 92.5649 25.1216C93.6403 25.0906 94.7155 25.0495 95.7909 25.0158C96.9912 24.9781 98.1916 24.9438 99.392 24.9081C100.592 24.8724 101.793 24.8358 102.993 24.8011C104.265 24.7644 105.537 24.7299 106.809 24.6935C108.033 24.6584 109.258 24.6204 110.482 24.5869C111.861 24.5491 113.24 24.5151 114.619 24.4791C115.981 24.4436 117.342 24.407 118.703 24.3722C120.136 24.3355 121.569 24.3008 123.001 24.2646C124.398 24.2294 125.796 24.2058 127.192 24.1535C128.258 24.1135 129.322 24.0326 130.388 23.9808C130.545 23.9731 130.706 24.049 130.865 24.0468C133.067 24.0162 135.268 23.9822 137.469 23.942C139.116 23.9118 140.763 23.8702 142.41 23.8362C144.218 23.7989 146.026 23.7521 147.834 23.7325ZM54.4186 119.103C53.259 123.239 55.2167 135.17 53.783 140.391C53.783 140.863 61.413 140.713 76.6728 139.94C78.2637 136.239 78.8248 133.043 78.356 130.354C78.1808 129.348 75.1879 130.014 75.0415 129.221C74.6006 126.832 77.0287 123.658 76.0036 121.526C74.7642 121.526 73.1649 118.982 69.7682 118.601C66.3715 118.219 57.2686 119.103 54.4186 119.103ZM118.644 117.375C117.497 118.63 113.535 120.993 112.296 120.993C111.27 123.125 113.699 126.299 113.258 128.687C113.111 129.48 110.118 128.815 109.943 129.82C109.474 132.51 110.013 135.856 111.56 139.857C126.864 140.33 134.516 140.33 134.516 139.857C133.354 134.928 134.84 121.274 133.681 117.138L133.477 117.138C130.434 117.131 121.963 117.002 118.644 117.375Z" fill="#F0E8E6"/>
</g>
<path fill-rule="evenodd" clip-rule="evenodd" d="M55.6221 39.6877C56.7178 44.9357 56.7224 50.342 56.7226 55.7031C56.7236 83.4163 56.7247 111.13 56.7257 138.843C56.7257 139.288 56.7153 139.768 56.452 140.127C56.1888 140.487 55.5704 140.609 55.3138 140.245C55.1897 140.069 55.1846 139.838 55.1842 139.622C55.1254 110.69 55.0667 81.7586 55.0079 52.8268C54.999 48.4382 54.9914 44.0308 55.6221 39.6877H55.6221Z" fill="#282828"/>
<path fill-rule="evenodd" clip-rule="evenodd" d="M56.1953 37.2825C59.1352 37.9609 61.5952 40.8615 64.5599 40.3016C67.0167 39.8376 68.4823 37.1587 70.8493 36.3535C75.3331 34.8282 80.5029 40.5873 84.4657 37.9935C85.1846 37.523 85.7384 36.8187 86.4963 36.4141C89.7364 34.6847 93.9282 39.337 97.0576 37.4144C97.7832 36.9686 98.2868 36.2287 98.997 35.7587C102.048 33.7393 105.812 37.7301 109.461 37.4704C112.795 37.2332 115.594 33.4453 118.774 34.4742C120.092 34.9007 121.051 36.096 122.366 36.53C125.23 37.4746 128.329 34.4896 131.174 35.4903C132.116 35.8217 132.888 36.5632 133.859 36.7963C135.065 37.0857 136.301 36.5367 137.396 35.955C138.491 35.3732 139.641 34.7244 140.879 34.8019C142.117 34.8793 143.361 36.0706 142.974 37.2487C142.077 39.9793 141.971 42.897 141.872 45.7694C140.815 76.4214 139.758 107.073 138.702 137.725C137.98 137.684 137.788 136.717 137.805 135.995C138.556 103.24 139.307 70.4852 140.058 37.7305C138.625 36.922 137.094 38.7173 135.468 38.9682C133.766 39.2307 132.313 37.7652 130.647 37.333C127.491 36.5145 123.932 39.4567 121.093 37.8541C120.131 37.3108 119.451 36.3102 118.416 35.9242C115.523 34.8458 113.364 39.0543 110.343 39.6919C107.067 40.3834 104.155 36.6617 100.836 37.1016C97.7638 37.5087 95.4594 41.3753 92.4735 40.5442C90.4682 39.9861 89.0073 37.3738 87.0103 37.9607C85.8558 38.3 85.2815 39.5857 84.3069 40.2914C82.7769 41.3992 80.6199 40.8677 78.9352 40.0136C77.2504 39.1594 75.6084 37.9984 73.7204 37.9381C70.9381 37.8492 68.7025 40.1371 66.08 41.0709C62.461 42.3597 58.026 40.66 56.1953 37.2825Z" fill="#282828"/>
<path fill-rule="evenodd" clip-rule="evenodd" d="M95.8623 42.2503C95.8895 42.9256 95.3679 43.4827 94.8829 43.9534C92.9853 45.7953 91.0846 47.6422 89.3895 49.672C87.3314 52.1364 85.5615 54.8843 83.0925 56.9369C82.832 56.6303 83.0793 56.1694 83.3265 55.852C86.9166 51.2426 90.7829 46.8483 94.8977 42.7006C95.1606 42.4356 95.5031 42.1489 95.8623 42.2503V42.2503Z" fill="#9F9F9F"/>
<path fill-rule="evenodd" clip-rule="evenodd" d="M122.257 102.273C121.973 102.473 121.618 102.662 121.293 102.537C121.416 102.167 121.659 101.851 121.904 101.547C124.901 97.8357 128.723 94.8925 132.506 91.9862C132.847 91.7246 133.295 91.4509 133.675 91.6512C133.64 91.9713 133.394 92.2226 133.157 92.4404C130.933 94.4843 128.275 96.0344 126.185 98.2152C124.88 99.5777 123.798 101.184 122.257 102.273Z" fill="#9F9F9F"/>
<path fill-rule="evenodd" clip-rule="evenodd" d="M60.5459 72.5342C60.7254 72.1603 61.227 72.108 61.6417 72.1072C66.0353 72.0989 70.4289 72.0906 74.8225 72.0823C74.8524 62.6955 74.7163 53.3082 74.4141 43.9263C74.4036 43.5982 74.3992 43.2462 74.5803 42.9724C74.7615 42.6987 75.2047 42.5792 75.4172 42.8294C75.5734 52.6241 75.7295 62.4189 75.8857 72.2136C75.89 72.4886 75.8887 72.7837 75.7326 73.0102C75.4833 73.372 74.9685 73.3988 74.5293 73.3891C70.4639 73.3002 66.3986 73.2113 62.3332 73.1224C61.6833 73.1082 60.9416 73.0499 60.5459 72.5342Z" fill="#282828"/>
<path fill-rule="evenodd" clip-rule="evenodd" d="M47.3914 28.8424C52.6369 65.8413 46.7859 103.615 50.4581 140.803C81.9542 140.62 113.45 140.436 144.946 140.253C145.695 140.249 146.541 140.202 147.034 139.639C147.443 139.171 147.474 138.492 147.484 137.87C148.099 100.262 148.714 62.6545 149.329 25.0467C125.286 25.6944 101.243 26.3421 77.1992 26.9898C68.1893 27.2325 59.1461 27.474 50.1864 26.4932C82.7314 24.9198 115.304 23.9114 147.884 23.4687C148.82 23.456 149.864 23.4848 150.531 24.1424C151.212 24.8143 151.24 25.886 151.224 26.8427C150.596 63.991 149.968 101.139 149.34 138.288C149.242 144.096 149.201 150.167 151.81 155.357C153.857 159.43 157.572 163.491 156.258 167.856C155.938 168.921 155.315 169.944 155.397 171.053C155.611 173.933 159.704 174.304 162.515 173.645C165.327 172.985 169.259 172.752 170.104 175.513C123.623 176.554 77.126 176.937 30.6333 176.661C33.9456 175.582 37.4039 174.952 40.884 174.794C38.9507 170.468 39.456 165.145 42.1689 161.26C43.6961 159.073 45.8745 157.295 46.8604 154.817C47.58 153.008 47.5869 151.006 47.5837 149.059C47.5196 108.987 47.4555 68.9146 47.3914 28.8424ZM112.663 164.4C104.853 164.67 97.0909 166.151 89.2805 165.895C85.7662 165.78 82.2734 165.313 78.7657 165.07C70.1618 164.472 61.5275 165.216 52.9349 165.959C49.5165 166.254 46.0981 166.55 42.6797 166.846C42.3582 166.874 42.0087 166.914 41.7797 167.141C41.4851 167.434 41.5084 167.908 41.5521 168.321C41.7419 170.112 41.9317 171.903 42.1215 173.694C42.1652 174.106 42.2305 174.56 42.5474 174.827C42.8409 175.074 43.2607 175.083 43.6444 175.08C80.0696 174.75 116.495 174.421 152.92 174.092C153.324 174.088 153.768 174.069 154.064 173.794C154.358 173.52 154.409 173.081 154.443 172.681C154.64 170.343 154.837 168.005 155.034 165.667C140.989 167.394 126.806 163.911 112.663 164.4ZM86.8096 163.724C96.7971 164.184 106.76 162.327 116.758 162.402C129.052 162.496 141.393 165.505 153.54 163.607C153.826 163.562 154.142 163.496 154.308 163.259C154.547 162.917 154.334 162.453 154.12 162.094C152.791 159.865 151.461 157.635 150.132 155.406C149.804 154.857 149.455 154.285 148.905 153.957C148.311 153.603 147.581 153.593 146.889 153.592C114.857 153.573 82.8257 153.996 50.806 154.86C48.0193 158.171 45.0606 161.336 41.9457 164.34C52.1655 165.56 62.4301 162.556 72.7214 162.708C77.4301 162.777 82.1053 163.507 86.8096 163.724ZM49.3751 147.936C49.6209 149.804 50.6658 151.682 52.4108 152.392C53.4106 152.799 54.524 152.787 55.6032 152.77C86.1064 152.273 116.61 151.777 147.113 151.281C147.23 149.255 147.347 147.229 147.464 145.203C147.483 144.878 147.495 144.527 147.314 144.256C147.075 143.896 146.591 143.81 146.161 143.758C114.297 139.871 81.919 145.307 49.9555 142.346C49.5436 144.184 49.1293 146.069 49.3751 147.936Z" fill="#282828"/>
<path fill-rule="evenodd" clip-rule="evenodd" d="M95.3278 49.672C95.5139 49.502 95.7078 49.3289 95.9459 49.2461C96.184 49.1634 96.4796 49.1933 96.6441 49.3842C96.5462 49.8055 96.1776 50.099 95.8407 50.3701C92.6311 52.9528 90.3284 56.5079 87.1973 59.1852C86.9677 59.3816 86.5606 59.5463 86.4191 59.2795C86.3217 59.0957 86.4695 58.882 86.6084 58.7271C89.4079 55.6068 92.2324 52.499 95.3278 49.672Z" fill="#9F9F9F"/>
<path fill-rule="evenodd" clip-rule="evenodd" d="M59.5703 104.99C59.5659 104.443 60.0528 104.037 60.4899 103.708C63.1781 101.688 65.6707 99.4076 67.9216 96.9093C68.1215 96.6873 68.5253 96.9514 68.5267 97.2501C68.528 97.5488 68.2992 97.7921 68.0855 98.0009C65.8173 100.218 63.5409 102.442 61.0043 104.346C60.5775 104.666 60.104 104.991 59.5703 104.99Z" fill="#9F9F9F"/>
<path fill-rule="evenodd" clip-rule="evenodd" d="M76.928 42.7343C77.218 42.5862 77.5536 42.5289 77.8763 42.5726C78.1681 52.3166 78.407 62.0621 78.593 71.8087C89.3847 71.4757 100.191 71.6092 110.971 72.2087C111.928 62.1852 111.905 52.0963 111.814 42.0276C111.812 41.7652 111.814 41.4879 111.948 41.2624C112.082 41.037 112.4 40.8993 112.616 41.0484C112.802 41.1773 112.825 41.4394 112.83 41.6662C113.043 51.9532 112.767 62.2503 112.002 72.5111C111.987 72.7182 111.967 72.9383 111.84 73.1027C111.628 73.3777 111.222 73.3822 110.875 73.362C99.7849 72.7157 88.6623 72.6253 77.563 73.0911C77.5419 62.9694 77.3302 52.8481 76.928 42.7343Z" fill="#282828"/>
<path fill-rule="evenodd" clip-rule="evenodd" d="M113.493 140.129C111.826 136.599 111.184 132.592 111.667 128.718C111.683 128.586 111.704 128.447 111.791 128.347C111.832 132.043 112.501 135.732 113.761 139.207C113.826 139.387 113.894 139.575 113.867 139.765C113.841 139.954 113.684 140.141 113.493 140.129H113.493Z" fill="#282828"/>
<path fill-rule="evenodd" clip-rule="evenodd" d="M120.815 94.034C122.686 92.2286 124.557 90.4233 126.428 88.618C126.623 88.43 126.974 88.6819 126.97 88.9526C126.966 89.2233 126.758 89.442 126.564 89.6308C124.997 91.1557 123.43 92.6806 121.863 94.2055C121.661 94.4021 121.427 94.6119 121.145 94.6077C120.863 94.6036 120.613 94.2297 120.815 94.034H120.815Z" fill="#9F9F9F"/>
<path fill-rule="evenodd" clip-rule="evenodd" d="M81.0616 128.716C85.8259 128.733 90.586 128.458 95.3425 128.184C100.853 127.866 106.363 127.548 111.873 127.23C113.102 127.159 114.381 127.074 115.453 126.468C114.207 125.012 113.374 123.206 113.075 121.314C113.046 121.132 113.024 120.936 113.109 120.772C113.194 120.609 113.429 120.513 113.569 120.632C113.818 122.686 114.628 124.668 115.888 126.308C116.144 126.641 115.702 127.066 115.313 127.22C113.968 127.755 112.494 127.841 111.049 127.921C106.799 128.156 102.55 128.391 98.3012 128.626C92.9099 128.925 87.5183 129.223 82.1227 129.429C81.0678 129.469 79.8267 129.418 79.2248 128.551C78.7242 127.829 78.8991 126.855 79.1059 126.001C79.437 124.634 79.7979 123.275 80.188 121.923C80.2996 121.537 80.5234 121.068 80.9249 121.09C80.1086 122.973 79.6766 125.022 79.6629 127.074C79.6591 127.633 79.7411 128.288 80.2251 128.566C80.4736 128.709 80.7749 128.714 81.0616 128.716Z" fill="#282828"/>
<path fill-rule="evenodd" clip-rule="evenodd" d="M80.8165 51.8254C80.5157 51.6905 80.6866 51.2354 80.8955 50.9804C83.2845 48.0621 85.6736 45.1439 88.0627 42.2257C88.1627 42.1035 88.269 41.9765 88.4154 41.9171C88.5617 41.8578 88.7596 41.8932 88.8294 42.0348C88.9098 42.1977 88.7876 42.3836 88.672 42.5237C86.28 45.4224 83.888 48.3212 81.496 51.2199C81.3011 51.4561 81.096 51.7003 80.8165 51.8254H80.8165Z" fill="#9F9F9F"/>
<path fill-rule="evenodd" clip-rule="evenodd" d="M47.6282 28.6958C47.5854 28.3663 47.5738 28.0327 47.5936 27.7011C47.5968 27.6477 47.6082 27.5836 47.6579 27.5638C47.7399 27.5312 47.795 27.6495 47.8043 27.7373C47.8398 28.0714 47.8602 28.4528 47.6282 28.6958H47.6282Z" fill="#282828"/>
<path fill-rule="evenodd" clip-rule="evenodd" d="M132.459 73.2232C126.347 73.2824 120.235 73.3417 114.124 73.401C113.953 73.4027 113.766 73.3986 113.637 73.2872C113.487 73.1584 113.471 72.9366 113.467 72.7393C113.224 62.5244 113.59 52.3059 113.956 42.0947C113.967 41.7777 113.987 41.4372 114.183 41.1878C114.378 40.9384 114.82 40.8648 114.996 41.129C114.545 51.2704 114.319 61.4217 114.318 71.5731C114.318 71.8799 114.421 72.2937 114.727 72.282C121.674 72.0166 128.63 72.0147 135.576 72.2763C135.718 72.2817 135.884 72.3013 135.954 72.4247C136.074 72.6362 135.79 72.8456 135.556 72.9129C134.556 73.2009 133.5 73.2131 132.459 73.2232Z" fill="#282828"/>
<path fill-rule="evenodd" clip-rule="evenodd" d="M35.3919 130.002C35.2826 129.893 35.1734 129.785 35.0641 129.676C35.0056 129.618 34.944 129.527 34.9951 129.462C35.0545 129.387 35.1727 129.454 35.2402 129.522C35.3409 129.623 35.4416 129.724 35.5422 129.825C35.6096 129.893 35.6753 130.012 35.5989 130.07C35.5352 130.117 35.4483 130.058 35.3919 130.002L35.3919 130.002Z" fill="#282828"/>
<path fill-rule="evenodd" clip-rule="evenodd" d="M65.713 84.9969C65.7778 85.12 65.7309 85.2716 65.6673 85.3954C65.5206 85.6812 65.2941 85.9168 65.0681 86.1451C64.6248 86.5927 64.1706 87.0294 63.7059 87.4547C63.5484 87.5988 63.3766 87.748 63.1655 87.7792C62.9543 87.8104 62.704 87.6632 62.7111 87.4499C62.7152 87.3271 62.7988 87.2232 62.8793 87.1302C63.5154 86.3955 64.2092 85.7107 64.9521 85.0841C65.0648 84.989 65.1839 84.8925 65.3271 84.8572C65.4703 84.8218 65.6443 84.8664 65.713 84.9969Z" fill="#9F9F9F"/>
<path fill-rule="evenodd" clip-rule="evenodd" d="M61.9966 68.4355C61.9498 68.4335 61.9483 68.3463 61.995 68.3427C62.0419 68.3461 62.0405 68.4338 61.9935 68.4357L61.9966 68.4355Z" fill="#282828"/>
<path fill-rule="evenodd" clip-rule="evenodd" d="M61.5795 92.807C61.5271 92.6222 61.6776 92.4459 61.8223 92.3195C62.1436 92.039 62.4973 91.7986 62.8435 91.5496C64.1437 90.6145 65.3501 89.5491 66.439 88.3746C66.5649 88.2388 66.6942 88.0979 66.8631 88.0219C67.032 87.9459 67.2531 87.9526 67.3788 88.0886C67.4985 88.2182 67.4955 88.4261 67.419 88.5851C67.3426 88.7441 67.2071 88.8655 67.075 88.9824C66.149 89.8021 65.2229 90.6218 64.2969 91.4415C63.6905 91.9783 63.0767 92.5202 62.3617 92.9007C62.228 92.9718 62.0852 93.0385 61.9337 93.0384C61.7823 93.0382 61.6208 92.9526 61.5795 92.807H61.5795Z" fill="#9F9F9F"/>
<path fill-rule="evenodd" clip-rule="evenodd" d="M119.951 88.5679C119.82 88.7083 119.687 88.8557 119.511 88.9312C119.335 89.0066 119.101 88.9868 118.987 88.8324C118.804 88.5841 119.045 88.2503 119.271 88.0408C120.621 86.7905 122.035 85.6093 123.506 84.5031C123.783 84.2948 124.132 84.0785 124.453 84.209C124.488 84.2233 124.525 84.2447 124.537 84.2807C124.546 84.3093 124.538 84.3405 124.529 84.3692C124.386 84.8065 124.011 85.1205 123.65 85.4057C122.376 86.4129 121.057 87.3789 119.951 88.5679Z" fill="#9F9F9F"/>
<path fill-rule="evenodd" clip-rule="evenodd" d="M82.3716 130.352C82.6042 131.411 82.967 133.178 82.84 134.255C82.6111 136.195 82.0812 137.589 81.6505 139.495C81.5817 139.8 81.1776 140.005 80.8887 140.124C80.7102 139.877 80.7857 139.535 80.8658 139.241C81.6562 136.337 82.1613 133.355 82.3716 130.352Z" fill="#282828"/>
<path fill-rule="evenodd" clip-rule="evenodd" d="M99.4228 139.791C99.2699 139.959 98.997 139.803 98.8344 139.645C97.8968 138.732 97.0493 137.727 96.3079 136.649C96.2721 136.597 96.1952 136.659 96.1663 136.715C95.6252 137.766 95.084 138.817 94.5429 139.868C94.5198 139.913 94.4882 139.964 94.4377 139.968C94.3356 139.976 94.3347 139.816 94.3756 139.722C94.9067 138.503 95.4377 137.284 95.9688 136.066C95.993 136.01 96.0185 135.953 96.0639 135.913C96.2379 135.759 96.4915 135.967 96.628 136.155C97.4209 137.244 98.299 138.271 99.2516 139.223C99.4071 139.378 99.5709 139.629 99.4228 139.791Z" fill="#282828"/>
<path fill-rule="evenodd" clip-rule="evenodd" d="M59.3524 112.141C59.1457 112.437 59.159 112.829 59.1803 113.189L59.409 117.042C59.4356 117.489 59.4875 117.989 59.8312 118.276C60.152 118.543 60.6144 118.529 61.0311 118.502L69.2349 117.956C71.6042 117.798 74.1887 117.698 76.1175 119.083C79.6948 121.651 85.2467 120.85 87.951 117.374C88.2681 116.966 88.8574 116.923 89.3737 116.915L104.951 116.659L104.992 116.659C105.695 116.647 106.613 116.632 106.952 117.163C109.836 121.692 117.366 120.841 121.106 117.191C121.826 116.489 122.919 116.378 123.921 116.305L133.81 115.591C134.961 115.507 135.828 114.408 136.04 113.275C136.252 112.141 135.96 110.98 135.671 109.864C135.582 109.519 135.468 109.14 135.162 108.957C134.937 108.822 134.658 108.826 134.396 108.835L113.722 109.511C113.321 98.1673 113.522 86.8021 114.324 75.4793C121.913 75.1128 129.515 74.987 137.113 75.1023C137.341 74.4822 136.398 74.1427 135.738 74.1594L114.55 74.697C114.184 74.7063 113.78 74.7305 113.518 74.9859C113.256 75.2411 113.22 75.6432 113.201 76.0086C112.615 87.2076 112.438 98.4281 112.67 109.64C112.241 109.711 111.792 109.655 111.393 109.481L111.555 75.6681C111.556 75.3644 111.539 75.0187 111.307 74.8231C111.121 74.6668 110.856 74.6593 110.613 74.6596C99.5624 74.6715 88.5116 74.8203 77.4643 75.1061L78.0767 110.799L76.6432 110.97C76.0928 99.1881 75.902 87.3896 76.0711 75.5962C76.0804 74.9466 75.226 74.7114 74.5769 74.683C69.6815 74.4683 64.777 74.4635 59.8813 74.6685C60.6233 75.462 61.834 75.54 62.9201 75.5651L75.087 75.8457C74.8909 87.4891 75.0638 99.1387 75.6055 110.771L60.674 111.647C60.1872 111.676 59.6316 111.741 59.3524 112.141ZM78.5082 75.678C89.1308 75.6224 99.7531 75.5219 110.375 75.3766C110.594 75.3736 110.663 75.6692 110.661 75.8885L110.344 109.654L79.0798 110.858C78.7907 99.1331 78.6002 87.4059 78.5082 75.678ZM82.8924 113.763C82.2829 113.787 81.7879 114.254 81.4081 114.732C81.3475 114.808 81.2877 114.885 81.2277 114.963C80.9114 115.374 80.5904 115.79 80.1327 116.021C79.7051 116.237 79.21 116.263 78.7315 116.284L60.4135 117.108L60.0795 112.757C84.7915 111.371 109.524 110.349 134.266 109.69C134.436 109.685 134.622 109.686 134.753 109.795C134.909 109.924 134.925 110.154 134.929 110.356L135.007 114.5C129.218 115.349 123.356 115.536 117.508 115.722C116.688 115.748 115.812 115.76 115.12 115.32C114.648 115.021 114.326 114.551 114.007 114.086C113.932 113.976 113.857 113.867 113.78 113.761C113.378 113.2 112.837 112.652 112.149 112.596C111.461 112.539 110.733 113.271 111.04 113.89C110.409 113.057 108.787 113.558 108.737 114.602C108.539 113.809 107.527 113.343 106.796 113.707C106.064 114.072 105.827 115.16 106.341 115.796L88.5213 116.108C88.5446 115.463 88.0382 114.841 87.4025 114.734C86.7667 114.626 86.0838 115.046 85.8936 115.662C85.9093 114.688 84.3816 114.169 83.8008 114.952C84.114 114.428 83.502 113.739 82.8924 113.763ZM111.146 119.235C110.242 119.037 109.306 118.755 108.662 118.09C108.335 117.751 108.105 117.334 107.878 116.921L107.011 115.347C106.908 115.159 106.802 114.955 106.829 114.743C106.856 114.53 107.532 113.884 108.134 114.602C108.737 115.32 108.958 115.605 109.422 116.505C109.461 116.58 109.499 116.657 109.538 116.734C109.848 117.357 110.194 118.051 110.86 118.088C110.988 117.602 110.767 117.1 110.55 116.647L109.947 115.381C109.755 114.979 109.571 114.475 109.836 114.117C111.219 114.584 111.991 116.024 112.586 117.357C112.661 117.525 112.74 117.699 112.884 117.813C113.028 117.927 113.258 117.956 113.387 117.825C113.557 117.653 113.448 117.366 113.334 117.153C112.768 116.093 112.268 114.998 111.838 113.875C111.788 113.744 111.743 113.582 111.833 113.474C111.942 113.343 112.152 113.398 112.305 113.473C113.251 113.936 114.014 114.764 114.397 115.746C114.426 115.821 114.454 115.898 114.482 115.975C114.571 116.225 114.661 116.476 114.82 116.687C115.31 117.337 116.247 117.391 117.061 117.387C117.281 117.386 117.51 117.383 117.71 117.29C117.91 117.197 118.074 116.987 118.04 116.769C118.007 116.564 118.294 116.481 118.502 116.483L121.069 116.506C119.782 118.041 117.715 118.628 115.777 119.136C115.228 119.28 114.677 119.424 114.113 119.486C113.122 119.596 112.12 119.449 111.146 119.235ZM74.8222 117.732C75.6562 117.557 76.5018 117.438 77.3516 117.375C77.283 117.667 77.4797 117.967 77.7349 118.125C78.3304 118.492 79.1379 118.234 79.6572 117.765C80.0071 117.449 80.2693 117.055 80.5318 116.661C80.6589 116.47 80.786 116.279 80.9231 116.097C81.4666 115.375 82.9238 113.731 83.2123 114.5C83.3819 114.952 82.9621 115.789 82.4947 116.72C82.1665 117.374 81.8149 118.075 81.6272 118.722C82.214 118.276 82.4599 117.867 82.7204 117.357C83.0208 116.769 83.6437 115.943 84.1289 115.347C84.3474 115.078 84.6729 114.918 84.9813 115.055C85.2896 115.193 85.3816 115.566 85.3001 115.746C85.1091 116.166 84.988 116.476 84.867 116.786C84.7459 117.095 84.6249 117.405 84.4339 117.825C84.4218 117.852 84.4028 117.89 84.3801 117.936C84.2653 118.168 84.0532 118.597 84.1289 118.724C84.2067 118.855 84.4191 118.628 84.6355 118.398C84.6867 118.343 84.738 118.289 84.7879 118.238C84.864 118.162 84.9931 117.934 85.1621 117.637C85.5728 116.914 86.2186 115.778 86.9099 115.381C87.4769 115.055 87.7271 115.889 87.6082 116.14C87.3891 116.603 87.1562 117.06 86.9099 117.509C86.5832 118.105 85.9554 118.701 85.4283 119.13C84.7587 119.675 83.8843 119.899 83.0281 120.011C80.0522 120.4 77.2014 119.561 74.8222 117.732ZM78.5082 117.956C78.071 117.998 77.7349 117.375 77.7349 117.375L79.5344 117.244C79.5344 117.244 78.9455 117.914 78.5082 117.956Z" fill="#282828"/>
<defs>
<clipPath id="clip0_1304_50747">
<rect width="131.2" height="152.8" fill="white" transform="translate(37.5667 23.7333)"/>
</clipPath>
</defs>
</svg>
